<?xml version="1.0" encoding="UTF-8" standalone="no"?>
<!-- Created with Inkscape (http://www.inkscape.org/) -->
<svg
   xmlns:dc="http://purl.org/dc/elements/1.1/"
   xmlns:cc="http://web.resource.org/cc/"
   xmlns:rdf="http://www.w3.org/1999/02/22-rdf-syntax-ns#"
   xmlns:svg="http://www.w3.org/2000/svg"
   xmlns="http://www.w3.org/2000/svg"
   xmlns:sodipodi="http://sodipodi.sourceforge.net/DTD/sodipodi-0.dtd"
   xmlns:inkscape="http://www.inkscape.org/namespaces/inkscape"
   width="1470"
   height="389.76376"
   id="svg2"
   sodipodi:version="0.32"
   inkscape:version="0.45.1"
   version="1.0"
   sodipodi:docbase="/home/acastro/connectical/artwork/logo"
   sodipodi:docname="bw-full-web.svg"
   inkscape:output_extension="org.inkscape.output.svg.inkscape"
   inkscape:export-filename="/home/acastro/connectical/artwork/logo/bw-full.png"
   inkscape:export-xdpi="20.360001"
   inkscape:export-ydpi="20.360001">
  <defs
     id="defs4">
    <filter
       inkscape:collect="always"
       x="-0.28800001"
       width="1.576"
       y="-0.096000003"
       height="1.192"
       id="filter3381">
      <feGaussianBlur
         inkscape:collect="always"
         stdDeviation="8.5039371"
         id="feGaussianBlur3383" />
    </filter>
    <filter
       inkscape:collect="always"
       x="-0.288"
       width="1.576"
       y="-0.095999998"
       height="1.192"
       id="filter3385">
      <feGaussianBlur
         inkscape:collect="always"
         stdDeviation="8.5039371"
         id="feGaussianBlur3387" />
    </filter>
    <filter
       inkscape:collect="always"
       x="-0.02062769"
       width="1.0412554"
       y="-0.14130221"
       height="1.2826044"
       id="filter3455">
      <feGaussianBlur
         inkscape:collect="always"
         stdDeviation="7.6470183"
         id="feGaussianBlur3457" />
    </filter>
  </defs>
  <sodipodi:namedview
     id="base"
     pagecolor="#ffffff"
     bordercolor="#666666"
     borderopacity="1.0"
     gridtolerance="10000"
     guidetolerance="10"
     objecttolerance="10"
     inkscape:pageopacity="0.0"
     inkscape:pageshadow="2"
     inkscape:zoom="0.61090178"
     inkscape:cx="735"
     inkscape:cy="194.88188"
     inkscape:document-units="mm"
     inkscape:current-layer="layer1"
     width="1470px"
     height="389.76376px"
     showguides="false"
     inkscape:guide-bbox="true"
     inkscape:window-width="1364"
     inkscape:window-height="715"
     inkscape:window-x="0"
     inkscape:window-y="0"
     inkscape:guide-points="false"
     units="mm">
    <sodipodi:guide
       orientation="vertical"
       position="35.433071"
       id="guide2162" />
    <sodipodi:guide
       orientation="horizontal"
       position="35.433071"
       id="guide2164" />
    <sodipodi:guide
       orientation="horizontal"
       position="354.33071"
       id="guide2166" />
    <sodipodi:guide
       orientation="vertical"
       position="354.33071"
       id="guide2168" />
    <sodipodi:guide
       orientation="vertical"
       position="88.582677"
       id="guide3141" />
    <sodipodi:guide
       orientation="vertical"
       position="301.1811"
       id="guide3143" />
    <sodipodi:guide
       orientation="horizontal"
       position="124.01575"
       id="guide3145" />
    <sodipodi:guide
       orientation="horizontal"
       position="301.1811"
       id="guide3147" />
    <sodipodi:guide
       orientation="horizontal"
       position="265.74803"
       id="guide3149" />
    <sodipodi:guide
       orientation="horizontal"
       position="88.582677"
       id="guide3151" />
    <sodipodi:guide
       orientation="vertical"
       position="124.01575"
       id="guide3153" />
    <sodipodi:guide
       orientation="vertical"
       position="265.74803"
       id="guide3155" />
    <sodipodi:guide
       orientation="vertical"
       position="159.44882"
       id="guide3157" />
    <sodipodi:guide
       orientation="vertical"
       position="230.31496"
       id="guide3159" />
    <sodipodi:guide
       orientation="horizontal"
       position="194.88189"
       id="guide5186" />
    <sodipodi:guide
       orientation="horizontal"
       position="272.70048"
       id="guide10076" />
  </sodipodi:namedview>
  <metadata
     id="metadata7">
    <rdf:RDF>
      <cc:Work
         rdf:about="">
        <dc:format>image/svg+xml</dc:format>
        <dc:type
           rdf:resource="http://purl.org/dc/dcmitype/StillImage" />
      </cc:Work>
    </rdf:RDF>
  </metadata>
  <g
     inkscape:label="Layer 1"
     inkscape:groupmode="layer"
     id="layer1">
    <rect
       style="opacity:0.6;fill:none;fill-opacity:1;stroke:none;stroke-width:2;stroke-linecap:round;stroke-linejoin:round;stroke-miterlimit:4;stroke-dasharray:none;stroke-opacity:1"
       id="rect3395"
       width="813.55133"
       height="309.37869"
       x="35.433071"
       y="46.009651"
       inkscape:export-filename="/home/acastro/connectical/webdesign/i/headlogo3.png"
       inkscape:export-xdpi="20.360001"
       inkscape:export-ydpi="20.360001" />
    <path
       sodipodi:nodetypes="ccccccccc"
       id="path2197"
       d="M 83.823206,99.285609 L 154.68935,99.285609 L 154.68935,134.71868 L 119.25628,134.71868 L 119.25628,276.45097 L 154.68935,276.45097 L 154.68935,311.88404 L 83.823206,311.88404 L 83.823206,99.285609 z "
       style="opacity:0.8;fill:#000000;fill-opacity:1;fill-rule:evenodd;stroke:none;stroke-width:3.54330707;stroke-linecap:butt;stroke-linejoin:miter;stroke-miterlimit:4;stroke-dasharray:none;stroke-opacity:0.94117647;filter:url(#filter3385)"
       inkscape:export-filename="/home/acastro/connectical/webdesign/i/headlogo3.png"
       inkscape:export-xdpi="20.360001"
       inkscape:export-ydpi="20.360001" />
    <path
       sodipodi:nodetypes="ccccccccc"
       style="opacity:0.8;fill:#000000;fill-opacity:1;fill-rule:evenodd;stroke:none;stroke-width:3.54330707;stroke-linecap:butt;stroke-linejoin:miter;stroke-miterlimit:4;stroke-dasharray:none;stroke-opacity:0.94117647;filter:url(#filter3381)"
       d="M 296.42163,99.285609 L 225.55549,99.285609 L 225.55549,134.71868 L 260.98856,134.71868 L 260.98856,276.45096 L 225.55549,276.45096 L 225.55549,311.88403 L 296.42163,311.88403 L 296.42163,99.285609 z "
       id="path2199"
       inkscape:export-filename="/home/acastro/connectical/webdesign/i/headlogo3.png"
       inkscape:export-xdpi="20.360001"
       inkscape:export-ydpi="20.360001" />
    <path
       style="fill:#ffffff;fill-opacity:1;fill-rule:evenodd;stroke:none;stroke-width:3.54330707;stroke-linecap:butt;stroke-linejoin:miter;stroke-miterlimit:4;stroke-dasharray:none;stroke-opacity:0.94117647"
       d="M 83.823206,93.285609 L 154.68935,93.285609 L 154.68935,128.71868 L 119.25628,128.71868 L 119.25628,270.45097 L 154.68935,270.45097 L 154.68935,305.88404 L 83.823206,305.88404 L 83.823206,93.285609 z "
       id="path3161"
       sodipodi:nodetypes="ccccccccc"
       inkscape:export-filename="/home/acastro/connectical/webdesign/i/headlogo3.png"
       inkscape:export-xdpi="20.360001"
       inkscape:export-ydpi="20.360001" />
    <path
       id="path3163"
       d="M 296.42163,93.285612 L 225.55549,93.285612 L 225.55549,128.71868 L 260.98856,128.71868 L 260.98856,270.45096 L 225.55549,270.45096 L 225.55549,305.88403 L 296.42163,305.88403 L 296.42163,93.285612 z "
       style="fill:#ffffff;fill-opacity:1;fill-rule:evenodd;stroke:none;stroke-width:3.54330707;stroke-linecap:butt;stroke-linejoin:miter;stroke-miterlimit:4;stroke-dasharray:none;stroke-opacity:0.94117647"
       sodipodi:nodetypes="ccccccccc"
       inkscape:export-filename="/home/acastro/connectical/webdesign/i/headlogo3.png"
       inkscape:export-xdpi="20.360001"
       inkscape:export-ydpi="20.360001" />
    <g
       transform="matrix(0.518509,0,0,0.518509,102.93746,50.81238)"
       style="opacity:1;fill:#000000;fill-opacity:1;stroke:none;stroke-width:1.77165353;stroke-miterlimit:4;stroke-dasharray:none;stroke-opacity:1;filter:url(#filter3455)"
       id="g3409"
       inkscape:export-filename="/home/acastro/connectical/webdesign/i/headlogo3.png"
       inkscape:export-xdpi="20.360001"
       inkscape:export-ydpi="20.360001">
      <path
         style="font-size:185.09587097px;font-style:normal;font-variant:normal;font-weight:normal;font-stretch:normal;text-align:start;line-height:125%;writing-mode:lr-tb;text-anchor:start;fill:#000000;fill-opacity:1;stroke:none;stroke-width:1.77165353;stroke-miterlimit:4;stroke-dasharray:none;stroke-opacity:1;font-family:Emeplus2p"
         d="M 518.20068,158.22402 C 507.34167,158.22411 498.88897,161.61753 492.84254,168.40429 C 486.79605,175.06781 483.77282,184.56939 483.77284,196.90905 C 483.77282,208.75523 486.98114,218.19511 493.39783,225.22872 C 499.81444,232.26238 508.08206,235.7792 518.20068,235.77919 C 526.83841,235.7792 535.10603,233.68145 543.00352,229.48593 L 546.70545,240.40658 C 537.45057,244.72549 527.76389,246.88494 517.64539,246.88494 C 503.33126,246.88494 491.73194,242.38095 482.84736,233.37294 C 473.96275,224.24157 469.52045,212.08695 469.52047,196.90905 C 469.52045,181.23767 473.77765,169.02136 482.29207,160.26007 C 490.80646,151.37557 502.59089,146.93327 517.64539,146.93317 C 527.76389,146.93327 537.45057,149.09272 546.70545,153.41152 L 543.00352,164.70237 C 535.10603,160.38356 526.83841,158.22411 518.20068,158.22402"
         id="path3411" />
      <path
         id="path3413"
         style="font-size:185.09587097px;font-style:normal;font-variant:normal;font-weight:normal;font-stretch:normal;text-align:start;line-height:125%;writing-mode:lr-tb;text-anchor:start;fill:#000000;fill-opacity:1;stroke:none;stroke-width:1.77165353;stroke-miterlimit:4;stroke-dasharray:none;stroke-opacity:1;font-family:Emeplus2p"
         d="M 627.06847,168.40429 C 621.51553,161.49413 613.8649,158.03901 604.11658,158.03892 C 594.36816,158.03901 586.65584,161.49413 580.9796,168.40429 C 575.4267,175.19121 572.65026,184.69279 572.65028,196.90905 C 572.65026,209.12542 575.4267,218.6887 580.9796,225.59891 C 586.65584,232.38578 594.36816,235.7792 604.11658,235.77919 C 613.8649,235.7792 621.51553,232.38578 627.06847,225.59891 C 632.74467,218.6887 635.5828,209.12542 635.58289,196.90905 C 635.5828,184.69279 632.74467,175.19121 627.06847,168.40429 M 637.06365,233.37294 C 628.79596,242.38095 617.81361,246.88494 604.11658,246.88494 C 590.41946,246.88494 579.4371,242.38095 571.16953,233.37294 C 562.90189,224.36497 558.76809,212.21035 558.76809,196.90905 C 558.76809,181.60786 562.90189,169.45325 571.16953,160.44517 C 579.4371,151.43727 590.41946,146.93327 604.11658,146.93317 C 617.81361,146.93327 628.79596,151.43727 637.06365,160.44517 C 645.33117,169.45325 649.46497,181.60786 649.46507,196.90905 C 649.46497,212.21035 645.33117,224.36497 637.06365,233.37294" />
      <path
         style="font-size:185.09587097px;font-style:normal;font-variant:normal;font-weight:normal;font-stretch:normal;text-align:start;line-height:125%;writing-mode:lr-tb;text-anchor:start;fill:#000000;fill-opacity:1;stroke:none;stroke-width:1.77165353;stroke-miterlimit:4;stroke-dasharray:none;stroke-opacity:1;font-family:Emeplus2p"
         d="M 663.53197,148.78413 L 676.48868,148.78413 L 676.67378,165.99804 L 677.04397,165.99804 C 680.74587,160.07506 685.49664,155.44767 691.29636,152.11585 C 697.09598,148.66083 703.26584,146.93327 709.80595,146.93317 C 720.66484,146.93327 728.68565,150.32669 733.8684,157.11344 C 739.1744,163.77698 741.82743,174.38913 741.82752,188.94993 L 741.82752,245.03398 L 728.50063,245.03398 L 728.50063,190.06051 C 728.50054,178.09104 726.77298,169.82344 723.31794,165.25766 C 719.86274,160.56865 713.93968,158.22411 705.54873,158.22402 C 698.26825,158.22411 691.6665,161.74093 685.74348,168.77448 C 679.94377,175.8082 677.04394,184.0758 677.04397,193.57733 L 677.04397,245.03398 L 663.53197,245.03398 L 663.53197,148.78413"
         id="path3415" />
      <path
         style="font-size:185.09587097px;font-style:normal;font-variant:normal;font-weight:normal;font-stretch:normal;text-align:start;line-height:125%;writing-mode:lr-tb;text-anchor:start;fill:#000000;fill-opacity:1;stroke:none;stroke-width:1.77165353;stroke-miterlimit:4;stroke-dasharray:none;stroke-opacity:1;font-family:Emeplus2p"
         d="M 761.45597,148.78413 L 774.41268,148.78413 L 774.59777,165.99804 L 774.96797,165.99804 C 778.66986,160.07506 783.42064,155.44767 789.22036,152.11585 C 795.01998,148.66083 801.18984,146.93327 807.72994,146.93317 C 818.58883,146.93327 826.60964,150.32669 831.79241,157.11344 C 837.09839,163.77698 839.75144,174.38913 839.75153,188.94993 L 839.75153,245.03398 L 826.42462,245.03398 L 826.42462,190.06051 C 826.42454,178.09104 824.69699,169.82344 821.24194,165.25766 C 817.78674,160.56865 811.86368,158.22411 803.47273,158.22402 C 796.19224,158.22411 789.59051,161.74093 783.66747,168.77448 C 777.86777,175.8082 774.96794,184.0758 774.96797,193.57733 L 774.96797,245.03398 L 761.45597,245.03398 L 761.45597,148.78413"
         id="path3417" />
      <path
         id="path3419"
         style="font-size:185.09587097px;font-style:normal;font-variant:normal;font-weight:normal;font-stretch:normal;text-align:start;line-height:125%;writing-mode:lr-tb;text-anchor:start;fill:#000000;fill-opacity:1;stroke:none;stroke-width:1.77165353;stroke-miterlimit:4;stroke-dasharray:none;stroke-opacity:1;font-family:Emeplus2p"
         d="M 870.78382,202.09174 C 871.03059,212.58054 874.17721,220.84815 880.2237,226.89459 C 886.39353,232.94107 894.47604,235.9643 904.47126,235.96428 C 914.34298,235.9643 923.78287,233.49635 932.79094,228.56045 L 936.49286,239.11091 C 926.1274,244.2936 915.02166,246.88494 903.17559,246.88494 C 889.35506,246.88494 878.18763,242.38095 869.67324,233.37294 C 861.15882,224.36497 856.90161,212.21035 856.90162,196.90905 C 856.90161,181.36107 860.85032,169.14475 868.74776,160.26007 C 876.76855,151.37557 887.6275,146.93327 901.32463,146.93317 C 914.65148,146.93327 924.95513,151.19047 932.23564,159.70478 C 939.6394,168.09588 943.3413,180.1888 943.34139,195.98357 C 943.3413,197.58779 943.2179,199.62384 942.9712,202.09174 L 870.78382,202.09174 M 870.78382,191.35618 L 930.0145,191.35618 C 929.89102,180.62069 927.29968,172.35308 922.24048,166.55333 C 917.18112,160.75375 910.20918,157.85392 901.32463,157.85383 C 892.0698,157.85392 884.72767,160.81545 879.29823,166.73843 C 873.86872,172.53817 871.03059,180.74408 870.78382,191.35618" />
      <path
         style="font-size:185.09587097px;font-style:normal;font-variant:normal;font-weight:normal;font-stretch:normal;text-align:start;line-height:125%;writing-mode:lr-tb;text-anchor:start;fill:#000000;fill-opacity:1;stroke:none;stroke-width:1.77165353;stroke-miterlimit:4;stroke-dasharray:none;stroke-opacity:1;font-family:Emeplus2p"
         d="M 1008.0598,158.22402 C 997.20079,158.22411 988.74808,161.61753 982.70168,168.40429 C 976.65518,175.06781 973.63196,184.56939 973.63198,196.90905 C 973.63196,208.75523 976.84027,218.19511 983.25698,225.22872 C 989.67358,232.26238 997.94118,235.7792 1008.0598,235.77919 C 1016.6976,235.7792 1024.9652,233.68145 1032.8627,229.48593 L 1036.5646,240.40658 C 1027.3097,244.72549 1017.623,246.88494 1007.5045,246.88494 C 993.19039,246.88494 981.59109,242.38095 972.7065,233.37294 C 963.82188,224.24157 959.37958,212.08695 959.37959,196.90905 C 959.37958,181.23767 963.63679,169.02136 972.1512,160.26007 C 980.66558,151.37557 992.44998,146.93327 1007.5045,146.93317 C 1017.623,146.93327 1027.3097,149.09272 1036.5646,153.41152 L 1032.8627,164.70237 C 1024.9652,160.38356 1016.6976,158.22411 1008.0598,158.22402"
         id="path3421" />
      <path
         style="font-size:185.09587097px;font-style:normal;font-variant:normal;font-weight:normal;font-stretch:normal;text-align:start;line-height:125%;writing-mode:lr-tb;text-anchor:start;fill:#000000;fill-opacity:1;stroke:none;stroke-width:1.77165353;stroke-miterlimit:4;stroke-dasharray:none;stroke-opacity:1;font-family:Emeplus2p"
         d="M 1121.9375,117.00131 L 1121.9375,130.0625 L 1136.1875,130.0625 L 1136.1875,117.00131 L 1121.9375,117.00131 z M 1065.75,117.3125 L 1065.75,152.5 L 1054.4688,152.5 L 1054.4688,163.59375 L 1065.75,163.59375 L 1065.75,216.71875 C 1065.75,227.82453 1067.931,235.65305 1072.25,240.21875 C 1076.5688,244.66105 1081.9799,246.87501 1092.4688,246.875 C 1099.749,246.875 1102.2067,246.93189 1108.5,246.1875 L 1108.5938,235.46875 C 1103.6935,235.98425 1100.4822,235.78126 1094.3125,235.78125 C 1087.8958,235.78126 1085.5007,234.36941 1083.1562,231.53125 C 1080.8117,228.56974 1079.6563,222.76283 1079.6562,214.125 L 1079.6562,163.59375 L 1121.9375,163.59375 L 1121.9375,246.5 L 1136.1875,246.5 L 1136.1875,152.25 L 1079.6562,152.5 L 1079.6562,117.3125 L 1065.75,117.3125 z "
         id="path3423"
         sodipodi:nodetypes="ccccccccccccsccscccccccccc" />
      <path
         style="font-size:185.09587097px;font-style:normal;font-variant:normal;font-weight:normal;font-stretch:normal;text-align:start;line-height:125%;writing-mode:lr-tb;text-anchor:start;fill:#000000;fill-opacity:1;stroke:none;stroke-width:1.77165353;stroke-miterlimit:4;stroke-dasharray:none;stroke-opacity:1;font-family:Emeplus2p"
         d="M 1196.2285,158.22402 C 1185.3695,158.22411 1176.9168,161.61753 1170.8703,168.40429 C 1164.8238,175.06781 1161.8006,184.56939 1161.8006,196.90905 C 1161.8006,208.75523 1165.0089,218.19511 1171.4256,225.22872 C 1177.8422,232.26238 1186.1098,235.7792 1196.2285,235.77919 C 1204.8662,235.7792 1213.1338,233.68145 1221.0313,229.48593 L 1224.7332,240.40658 C 1215.4784,244.72549 1205.7917,246.88494 1195.6732,246.88494 C 1181.3591,246.88494 1169.7597,242.38095 1160.8752,233.37294 C 1151.9905,224.24157 1147.5482,212.08695 1147.5482,196.90905 C 1147.5482,181.23767 1151.8054,169.02136 1160.3199,160.26007 C 1168.8342,151.37557 1180.6187,146.93327 1195.6732,146.93317 C 1205.7917,146.93327 1215.4784,149.09272 1224.7332,153.41152 L 1221.0313,164.70237 C 1213.1338,160.38356 1204.8662,158.22411 1196.2285,158.22402"
         id="path3425" />
      <path
         id="path3427"
         style="font-size:185.09587097px;font-style:normal;font-variant:normal;font-weight:normal;font-stretch:normal;text-align:start;line-height:125%;writing-mode:lr-tb;text-anchor:start;fill:#000000;fill-opacity:1;stroke:none;stroke-width:1.77165353;stroke-miterlimit:4;stroke-dasharray:none;stroke-opacity:1;font-family:Emeplus2p"
         d="M 1280.4424,146.93317 C 1293.8927,146.93327 1303.5177,149.70971 1309.3174,155.26248 C 1315.117,160.81545 1318.0168,169.94683 1318.0169,182.65667 L 1318.0169,219.12056 C 1318.0168,227.88178 1318.9423,236.51958 1320.7933,245.03398 L 1307.8366,245.03398 C 1306.726,239.11092 1306.109,233.43465 1305.9857,228.00516 L 1305.6155,228.00516 C 1302.2837,233.92824 1297.4712,238.55563 1291.178,241.88735 C 1284.8847,245.21908 1277.7894,246.88494 1269.892,246.88494 C 1261.0073,246.88494 1253.912,244.417 1248.6059,239.4811 C 1243.2999,234.42183 1240.6468,227.63499 1240.6468,219.12056 C 1240.6468,208.26164 1245.2742,199.68554 1254.529,193.39223 C 1263.9072,187.09903 1277.2958,183.95241 1294.6948,183.95234 L 1304.5049,183.95234 L 1304.5049,183.02686 C 1304.5048,173.64875 1302.7156,167.1704 1299.1371,163.5918 C 1295.6819,159.88997 1289.4504,158.03901 1280.4424,158.03892 C 1268.8431,158.03901 1258.0458,160.87715 1248.0507,166.55333 L 1245.6444,155.63267 C 1255.8864,149.8331 1267.4857,146.93327 1280.4424,146.93317 M 1253.9737,218.56527 C 1253.9737,224.11817 1255.7013,228.49877 1259.1564,231.70708 C 1262.6115,234.79202 1267.2389,236.33449 1273.0386,236.33447 C 1281.553,236.33449 1288.8951,233.31126 1295.065,227.26478 C 1301.3582,221.09494 1304.5048,213.56772 1304.5049,204.68308 L 1304.5049,194.31771 L 1294.6948,194.31771 C 1281.7381,194.31777 1271.6812,196.53891 1264.5242,200.98116 C 1257.4905,205.30011 1253.9737,211.16147 1253.9737,218.56527" />
      <path
         sodipodi:nodetypes="ccccc"
         style="font-size:185.09587097px;font-style:normal;font-variant:normal;font-weight:normal;font-stretch:normal;text-align:start;line-height:125%;writing-mode:lr-tb;text-anchor:start;fill:#000000;fill-opacity:1;stroke:none;stroke-width:1.77165353;stroke-miterlimit:4;stroke-dasharray:none;stroke-opacity:1;font-family:Emeplus2p"
         d="M 1344.9869,245.03398 L 1344.9869,117.00865 L 1359.2393,117.00865 L 1359.2393,245.03398 L 1344.9869,245.03398"
         id="path3429" />
    </g>
    <g
       id="g10064"
       style="stroke:none;stroke-width:1.77165353;stroke-miterlimit:4;stroke-dasharray:none;stroke-opacity:1"
       transform="matrix(0.518509,0,0,0.518509,102.93746,46.335859)"
       inkscape:export-filename="/home/acastro/connectical/webdesign/i/headlogo3.png"
       inkscape:export-xdpi="20.360001"
       inkscape:export-ydpi="20.360001">
      <path
         id="path3186"
         d="M 518.20068,158.22402 C 507.34167,158.22411 498.88897,161.61753 492.84254,168.40429 C 486.79605,175.06781 483.77282,184.56939 483.77284,196.90905 C 483.77282,208.75523 486.98114,218.19511 493.39783,225.22872 C 499.81444,232.26238 508.08206,235.7792 518.20068,235.77919 C 526.83841,235.7792 535.10603,233.68145 543.00352,229.48593 L 546.70545,240.40658 C 537.45057,244.72549 527.76389,246.88494 517.64539,246.88494 C 503.33126,246.88494 491.73194,242.38095 482.84736,233.37294 C 473.96275,224.24157 469.52045,212.08695 469.52047,196.90905 C 469.52045,181.23767 473.77765,169.02136 482.29207,160.26007 C 490.80646,151.37557 502.59089,146.93327 517.64539,146.93317 C 527.76389,146.93327 537.45057,149.09272 546.70545,153.41152 L 543.00352,164.70237 C 535.10603,160.38356 526.83841,158.22411 518.20068,158.22402"
         style="font-size:185.09587097px;font-style:normal;font-variant:normal;font-weight:normal;font-stretch:normal;text-align:start;line-height:125%;writing-mode:lr-tb;text-anchor:start;fill:#ffffff;fill-opacity:1;stroke:none;stroke-width:1.77165353;stroke-miterlimit:4;stroke-dasharray:none;stroke-opacity:1;font-family:Emeplus2p" />
      <path
         d="M 627.06847,168.40429 C 621.51553,161.49413 613.8649,158.03901 604.11658,158.03892 C 594.36816,158.03901 586.65584,161.49413 580.9796,168.40429 C 575.4267,175.19121 572.65026,184.69279 572.65028,196.90905 C 572.65026,209.12542 575.4267,218.6887 580.9796,225.59891 C 586.65584,232.38578 594.36816,235.7792 604.11658,235.77919 C 613.8649,235.7792 621.51553,232.38578 627.06847,225.59891 C 632.74467,218.6887 635.5828,209.12542 635.58289,196.90905 C 635.5828,184.69279 632.74467,175.19121 627.06847,168.40429 M 637.06365,233.37294 C 628.79596,242.38095 617.81361,246.88494 604.11658,246.88494 C 590.41946,246.88494 579.4371,242.38095 571.16953,233.37294 C 562.90189,224.36497 558.76809,212.21035 558.76809,196.90905 C 558.76809,181.60786 562.90189,169.45325 571.16953,160.44517 C 579.4371,151.43727 590.41946,146.93327 604.11658,146.93317 C 617.81361,146.93327 628.79596,151.43727 637.06365,160.44517 C 645.33117,169.45325 649.46497,181.60786 649.46507,196.90905 C 649.46497,212.21035 645.33117,224.36497 637.06365,233.37294"
         style="font-size:185.09587097px;font-style:normal;font-variant:normal;font-weight:normal;font-stretch:normal;text-align:start;line-height:125%;writing-mode:lr-tb;text-anchor:start;fill:#ffffff;fill-opacity:1;stroke:none;stroke-width:1.77165353;stroke-miterlimit:4;stroke-dasharray:none;stroke-opacity:1;font-family:Emeplus2p"
         id="path3184" />
      <path
         id="path3180"
         d="M 663.53197,148.78413 L 676.48868,148.78413 L 676.67378,165.99804 L 677.04397,165.99804 C 680.74587,160.07506 685.49664,155.44767 691.29636,152.11585 C 697.09598,148.66083 703.26584,146.93327 709.80595,146.93317 C 720.66484,146.93327 728.68565,150.32669 733.8684,157.11344 C 739.1744,163.77698 741.82743,174.38913 741.82752,188.94993 L 741.82752,245.03398 L 728.50063,245.03398 L 728.50063,190.06051 C 728.50054,178.09104 726.77298,169.82344 723.31794,165.25766 C 719.86274,160.56865 713.93968,158.22411 705.54873,158.22402 C 698.26825,158.22411 691.6665,161.74093 685.74348,168.77448 C 679.94377,175.8082 677.04394,184.0758 677.04397,193.57733 L 677.04397,245.03398 L 663.53197,245.03398 L 663.53197,148.78413"
         style="font-size:185.09587097px;font-style:normal;font-variant:normal;font-weight:normal;font-stretch:normal;text-align:start;line-height:125%;writing-mode:lr-tb;text-anchor:start;fill:#ffffff;fill-opacity:1;stroke:none;stroke-width:1.77165353;stroke-miterlimit:4;stroke-dasharray:none;stroke-opacity:1;font-family:Emeplus2p" />
      <path
         id="path3178"
         d="M 761.45597,148.78413 L 774.41268,148.78413 L 774.59777,165.99804 L 774.96797,165.99804 C 778.66986,160.07506 783.42064,155.44767 789.22036,152.11585 C 795.01998,148.66083 801.18984,146.93327 807.72994,146.93317 C 818.58883,146.93327 826.60964,150.32669 831.79241,157.11344 C 837.09839,163.77698 839.75144,174.38913 839.75153,188.94993 L 839.75153,245.03398 L 826.42462,245.03398 L 826.42462,190.06051 C 826.42454,178.09104 824.69699,169.82344 821.24194,165.25766 C 817.78674,160.56865 811.86368,158.22411 803.47273,158.22402 C 796.19224,158.22411 789.59051,161.74093 783.66747,168.77448 C 777.86777,175.8082 774.96794,184.0758 774.96797,193.57733 L 774.96797,245.03398 L 761.45597,245.03398 L 761.45597,148.78413"
         style="font-size:185.09587097px;font-style:normal;font-variant:normal;font-weight:normal;font-stretch:normal;text-align:start;line-height:125%;writing-mode:lr-tb;text-anchor:start;fill:#ffffff;fill-opacity:1;stroke:none;stroke-width:1.77165353;stroke-miterlimit:4;stroke-dasharray:none;stroke-opacity:1;font-family:Emeplus2p" />
      <path
         d="M 870.78382,202.09174 C 871.03059,212.58054 874.17721,220.84815 880.2237,226.89459 C 886.39353,232.94107 894.47604,235.9643 904.47126,235.96428 C 914.34298,235.9643 923.78287,233.49635 932.79094,228.56045 L 936.49286,239.11091 C 926.1274,244.2936 915.02166,246.88494 903.17559,246.88494 C 889.35506,246.88494 878.18763,242.38095 869.67324,233.37294 C 861.15882,224.36497 856.90161,212.21035 856.90162,196.90905 C 856.90161,181.36107 860.85032,169.14475 868.74776,160.26007 C 876.76855,151.37557 887.6275,146.93327 901.32463,146.93317 C 914.65148,146.93327 924.95513,151.19047 932.23564,159.70478 C 939.6394,168.09588 943.3413,180.1888 943.34139,195.98357 C 943.3413,197.58779 943.2179,199.62384 942.9712,202.09174 L 870.78382,202.09174 M 870.78382,191.35618 L 930.0145,191.35618 C 929.89102,180.62069 927.29968,172.35308 922.24048,166.55333 C 917.18112,160.75375 910.20918,157.85392 901.32463,157.85383 C 892.0698,157.85392 884.72767,160.81545 879.29823,166.73843 C 873.86872,172.53817 871.03059,180.74408 870.78382,191.35618"
         style="font-size:185.09587097px;font-style:normal;font-variant:normal;font-weight:normal;font-stretch:normal;text-align:start;line-height:125%;writing-mode:lr-tb;text-anchor:start;fill:#ffffff;fill-opacity:1;stroke:none;stroke-width:1.77165353;stroke-miterlimit:4;stroke-dasharray:none;stroke-opacity:1;font-family:Emeplus2p"
         id="path3176" />
      <path
         id="path3172"
         d="M 1008.0598,158.22402 C 997.20079,158.22411 988.74808,161.61753 982.70168,168.40429 C 976.65518,175.06781 973.63196,184.56939 973.63198,196.90905 C 973.63196,208.75523 976.84027,218.19511 983.25698,225.22872 C 989.67358,232.26238 997.94118,235.7792 1008.0598,235.77919 C 1016.6976,235.7792 1024.9652,233.68145 1032.8627,229.48593 L 1036.5646,240.40658 C 1027.3097,244.72549 1017.623,246.88494 1007.5045,246.88494 C 993.19039,246.88494 981.59109,242.38095 972.7065,233.37294 C 963.82188,224.24157 959.37958,212.08695 959.37959,196.90905 C 959.37958,181.23767 963.63679,169.02136 972.1512,160.26007 C 980.66558,151.37557 992.44998,146.93327 1007.5045,146.93317 C 1017.623,146.93327 1027.3097,149.09272 1036.5646,153.41152 L 1032.8627,164.70237 C 1024.9652,160.38356 1016.6976,158.22411 1008.0598,158.22402"
         style="font-size:185.09587097px;font-style:normal;font-variant:normal;font-weight:normal;font-stretch:normal;text-align:start;line-height:125%;writing-mode:lr-tb;text-anchor:start;fill:#ffffff;fill-opacity:1;stroke:none;stroke-width:1.77165353;stroke-miterlimit:4;stroke-dasharray:none;stroke-opacity:1;font-family:Emeplus2p" />
      <path
         sodipodi:nodetypes="ccccccccccccsccscccccccccc"
         id="path3170"
         d="M 1121.9375,117.00131 L 1121.9375,130.0625 L 1136.1875,130.0625 L 1136.1875,117.00131 L 1121.9375,117.00131 z M 1065.75,117.3125 L 1065.75,152.5 L 1054.4688,152.5 L 1054.4688,163.59375 L 1065.75,163.59375 L 1065.75,216.71875 C 1065.75,227.82453 1067.931,235.65305 1072.25,240.21875 C 1076.5688,244.66105 1081.9799,246.87501 1092.4688,246.875 C 1099.749,246.875 1102.2067,246.93189 1108.5,246.1875 L 1108.5938,235.46875 C 1103.6935,235.98425 1100.4822,235.78126 1094.3125,235.78125 C 1087.8958,235.78126 1085.5007,234.36941 1083.1562,231.53125 C 1080.8117,228.56974 1079.6563,222.76283 1079.6562,214.125 L 1079.6562,163.59375 L 1121.9375,163.59375 L 1121.9375,246.5 L 1136.1875,246.5 L 1136.1875,152.25 L 1079.6562,152.5 L 1079.6562,117.3125 L 1065.75,117.3125 z "
         style="font-size:185.09587097px;font-style:normal;font-variant:normal;font-weight:normal;font-stretch:normal;text-align:start;line-height:125%;writing-mode:lr-tb;text-anchor:start;fill:#ffffff;fill-opacity:1;stroke:none;stroke-width:1.77165353;stroke-miterlimit:4;stroke-dasharray:none;stroke-opacity:1;font-family:Emeplus2p" />
      <path
         id="path3164"
         d="M 1196.2285,158.22402 C 1185.3695,158.22411 1176.9168,161.61753 1170.8703,168.40429 C 1164.8238,175.06781 1161.8006,184.56939 1161.8006,196.90905 C 1161.8006,208.75523 1165.0089,218.19511 1171.4256,225.22872 C 1177.8422,232.26238 1186.1098,235.7792 1196.2285,235.77919 C 1204.8662,235.7792 1213.1338,233.68145 1221.0313,229.48593 L 1224.7332,240.40658 C 1215.4784,244.72549 1205.7917,246.88494 1195.6732,246.88494 C 1181.3591,246.88494 1169.7597,242.38095 1160.8752,233.37294 C 1151.9905,224.24157 1147.5482,212.08695 1147.5482,196.90905 C 1147.5482,181.23767 1151.8054,169.02136 1160.3199,160.26007 C 1168.8342,151.37557 1180.6187,146.93327 1195.6732,146.93317 C 1205.7917,146.93327 1215.4784,149.09272 1224.7332,153.41152 L 1221.0313,164.70237 C 1213.1338,160.38356 1204.8662,158.22411 1196.2285,158.22402"
         style="font-size:185.09587097px;font-style:normal;font-variant:normal;font-weight:normal;font-stretch:normal;text-align:start;line-height:125%;writing-mode:lr-tb;text-anchor:start;fill:#ffffff;fill-opacity:1;stroke:none;stroke-width:1.77165353;stroke-miterlimit:4;stroke-dasharray:none;stroke-opacity:1;font-family:Emeplus2p" />
      <path
         d="M 1280.4424,146.93317 C 1293.8927,146.93327 1303.5177,149.70971 1309.3174,155.26248 C 1315.117,160.81545 1318.0168,169.94683 1318.0169,182.65667 L 1318.0169,219.12056 C 1318.0168,227.88178 1318.9423,236.51958 1320.7933,245.03398 L 1307.8366,245.03398 C 1306.726,239.11092 1306.109,233.43465 1305.9857,228.00516 L 1305.6155,228.00516 C 1302.2837,233.92824 1297.4712,238.55563 1291.178,241.88735 C 1284.8847,245.21908 1277.7894,246.88494 1269.892,246.88494 C 1261.0073,246.88494 1253.912,244.417 1248.6059,239.4811 C 1243.2999,234.42183 1240.6468,227.63499 1240.6468,219.12056 C 1240.6468,208.26164 1245.2742,199.68554 1254.529,193.39223 C 1263.9072,187.09903 1277.2958,183.95241 1294.6948,183.95234 L 1304.5049,183.95234 L 1304.5049,183.02686 C 1304.5048,173.64875 1302.7156,167.1704 1299.1371,163.5918 C 1295.6819,159.88997 1289.4504,158.03901 1280.4424,158.03892 C 1268.8431,158.03901 1258.0458,160.87715 1248.0507,166.55333 L 1245.6444,155.63267 C 1255.8864,149.8331 1267.4857,146.93327 1280.4424,146.93317 M 1253.9737,218.56527 C 1253.9737,224.11817 1255.7013,228.49877 1259.1564,231.70708 C 1262.6115,234.79202 1267.2389,236.33449 1273.0386,236.33447 C 1281.553,236.33449 1288.8951,233.31126 1295.065,227.26478 C 1301.3582,221.09494 1304.5048,213.56772 1304.5049,204.68308 L 1304.5049,194.31771 L 1294.6948,194.31771 C 1281.7381,194.31777 1271.6812,196.53891 1264.5242,200.98116 C 1257.4905,205.30011 1253.9737,211.16147 1253.9737,218.56527"
         style="font-size:185.09587097px;font-style:normal;font-variant:normal;font-weight:normal;font-stretch:normal;text-align:start;line-height:125%;writing-mode:lr-tb;text-anchor:start;fill:#ffffff;fill-opacity:1;stroke:none;stroke-width:1.77165353;stroke-miterlimit:4;stroke-dasharray:none;stroke-opacity:1;font-family:Emeplus2p"
         id="path3162" />
      <path
         id="text2174"
         d="M 1344.9869,245.03398 L 1344.9869,117.00865 L 1359.2393,117.00865 L 1359.2393,245.03398 L 1344.9869,245.03398"
         style="font-size:185.09587097px;font-style:normal;font-variant:normal;font-weight:normal;font-stretch:normal;text-align:start;line-height:125%;writing-mode:lr-tb;text-anchor:start;fill:#ffffff;fill-opacity:1;stroke:none;stroke-width:1.77165353;stroke-miterlimit:4;stroke-dasharray:none;stroke-opacity:1;font-family:Emeplus2p"
         sodipodi:nodetypes="ccccc" />
    </g>
  </g>
</svg>
