<?xml version="1.0" encoding="UTF-8" standalone="no"?>
<svg
   xmlns:dc="http://purl.org/dc/elements/1.1/"
   xmlns:cc="http://web.resource.org/cc/"
   xmlns:rdf="http://www.w3.org/1999/02/22-rdf-syntax-ns#"
   xmlns:svg="http://www.w3.org/2000/svg"
   xmlns="http://www.w3.org/2000/svg"
   xmlns:sodipodi="http://inkscape.sourceforge.net/DTD/sodipodi-0.dtd"
   xmlns:inkscape="http://www.inkscape.org/namespaces/inkscape"
   width="8in"
   height="8in"
   viewBox="0 0 1 1"
   preserveAspectRatio="none"
   id="svg1404"
   sodipodi:version="0.32"
   inkscape:version="0.43"
   sodipodi:docname="connectical.svg"
   sodipodi:docbase="/home/moebius/doc/connectical/nn-latex">
  <metadata
     id="metadata1481">
    <rdf:RDF>
      <cc:Work
         rdf:about="">
        <dc:format>image/svg+xml</dc:format>
        <dc:type
           rdf:resource="http://purl.org/dc/dcmitype/StillImage" />
      </cc:Work>
    </rdf:RDF>
  </metadata>
  <defs
     id="defs1479">
































</defs>
  <sodipodi:namedview
     inkscape:window-height="739"
     inkscape:window-width="968"
     inkscape:pageshadow="2"
     inkscape:pageopacity="0.0"
     borderopacity="1.0"
     bordercolor="#666666"
     pagecolor="#ffffff"
     id="base"
     inkscape:zoom="0.55972222"
     inkscape:cx="360"
     inkscape:cy="360"
     inkscape:window-x="48"
     inkscape:window-y="0"
     inkscape:current-layer="svg1404" />
  <title
     id="title1406">SVG drawing</title>
  <desc
     id="desc1408">This was produced by version 4.1 of GNU libplot, a free library for exporting 2-D vector graphics.</desc>
  <path
     id="path1414"
     style="font-style:normal;font-variant:normal;font-weight:normal;font-stretch:normal;letter-spacing:normal;word-spacing:normal;text-anchor:start;fill:#000000;fill-opacity:1;fill-rule:nonzero;stroke:#000000;stroke-width:0;stroke-linecap:butt;stroke-linejoin:miter;stroke-miterlimit:10.43299961;stroke-dashoffset:0;stroke-opacity:1"
     d="M 0.27374558,0.61644371 L 0.19048223,0.61644371 C 0.17525663,0.61644371 0.16286087,0.6288221 0.16286087,0.64406506 L 0.16286087,0.72731106 C 0.16286087,0.74253665 0.17525663,0.75493241 0.19048223,0.75493241 L 0.27374558,0.75493241 C 0.28897118,0.75493241 0.30134957,0.74253665 0.30134957,0.72731106 L 0.30134957,0.64406506 C 0.30134957,0.6288221 0.28897118,0.61644371 0.27374558,0.61644371 z M 0.28641911,0.72731106 L 0.28641911,0.72797077 L 0.28636703,0.72861313 L 0.28628022,0.72923813 L 0.28617606,0.72986312 L 0.28601981,0.73048812 L 0.2858462,0.73107839 L 0.28565523,0.73166867 L 0.28542954,0.73224158 L 0.28516912,0.73281449 L 0.28489134,0.73335268 L 0.28457885,0.73389087 L 0.28424899,0.73439434 L 0.28390177,0.73489781 L 0.28351983,0.73538392 L 0.28312052,0.73583531 L 0.28270386,0.73628669 L 0.28225247,0.73670336 L 0.28180109,0.73710266 L 0.28131498,0.7374846 L 0.28082887,0.73783182 L 0.28030804,0.73816168 L 0.27976985,0.73847418 L 0.27923166,0.73875195 L 0.27865874,0.73901237 L 0.27808583,0.73923806 L 0.27749556,0.73942903 L 0.27690528,0.73960264 L 0.27628029,0.73974153 L 0.27567265,0.73986306 L 0.2750303,0.73994986 L 0.27438794,0.73998459 L 0.27374558,0.74000195 L 0.19048223,0.74000195 C 0.1835031,0.74000195 0.17779133,0.73429018 0.17779133,0.72731106 L 0.17779133,0.64406506 C 0.17779133,0.63706858 0.1835031,0.63137417 0.19048223,0.63137417 L 0.27374558,0.63137417 C 0.2807247,0.63137417 0.28641911,0.63706858 0.28641911,0.64406506 L 0.28641911,0.72731106 z M 0.27374558,0.61644371 L 0.19048223,0.61644371 C 0.17525663,0.61644371 0.16286087,0.6288221 0.16286087,0.64406506 L 0.16286087,0.72731106 C 0.16286087,0.74253665 0.17525663,0.75493241 0.19048223,0.75493241 L 0.27374558,0.75493241 C 0.28897118,0.75493241 0.30134957,0.74253665 0.30134957,0.72731106 L 0.30134957,0.64406506 C 0.30134957,0.6288221 0.28897118,0.61644371 0.27374558,0.61644371 z M 0.28641911,0.72731106 L 0.28641911,0.72797077 L 0.28636703,0.72861313 L 0.28628022,0.72923813 L 0.28617606,0.72986312 L 0.28601981,0.73048812 L 0.2858462,0.73107839 L 0.28565523,0.73166867 L 0.28542954,0.73224158 L 0.28516912,0.73281449 L 0.28489134,0.73335268 L 0.28457885,0.73389087 L 0.28424899,0.73439434 L 0.28390177,0.73489781 L 0.28351983,0.73538392 L 0.28312052,0.73583531 L 0.28270386,0.73628669 L 0.28225247,0.73670336 L 0.28180109,0.73710266 L 0.28131498,0.7374846 L 0.28082887,0.73783182 L 0.28030804,0.73816168 L 0.27976985,0.73847418 L 0.27923166,0.73875195 L 0.27865874,0.73901237 L 0.27808583,0.73923806 L 0.27749556,0.73942903 L 0.27690528,0.73960264 L 0.27628029,0.73974153 L 0.27567265,0.73986306 L 0.2750303,0.73994986 L 0.27438794,0.73998459 L 0.27374558,0.74000195 L 0.19048223,0.74000195 C 0.1835031,0.74000195 0.17779133,0.73429018 0.17779133,0.72731106 L 0.17779133,0.64406506 C 0.17779133,0.63706858 0.1835031,0.63137417 0.19048223,0.63137417 L 0.27374558,0.63137417 C 0.2807247,0.63137417 0.28641911,0.63706858 0.28641911,0.64406506 L 0.28641911,0.72731106 z " />
  <path
     id="path1422"
     style="font-style:normal;font-variant:normal;font-weight:normal;font-stretch:normal;letter-spacing:normal;word-spacing:normal;text-anchor:start;fill:#000000;fill-opacity:1;fill-rule:nonzero;stroke:#000000;stroke-width:0;stroke-linecap:round;stroke-linejoin:round;stroke-miterlimit:10.43299961;stroke-dasharray:none;stroke-dashoffset:0;stroke-opacity:1"
     d="M 0.16681918,0.61644371 L 0.052236583,0.61644371 C 0.037012722,0.61644371 0.024622176,0.6288221 0.024622176,0.6440477 L 0.024622176,0.72731106 C 0.024622176,0.74253665 0.037012722,0.75491505 0.052236583,0.75491505 L 0.1657428,0.75491505 C 0.15513523,0.75488032 0.14744431,0.74882133 0.14285406,0.74000195 L 0.052236583,0.74000195 C 0.045259197,0.74000195 0.039549164,0.73429018 0.039549164,0.72731106 L 0.039549164,0.6440477 C 0.039549164,0.63706858 0.045259197,0.63135681 0.052236583,0.63135681 L 0.14285406,0.63135681 C 0.14746167,0.62252006 0.15520467,0.61644371 0.16586433,0.61644371" />
  <path
     id="path1424"
     style="font-style:normal;font-variant:normal;font-weight:normal;font-stretch:normal;letter-spacing:normal;word-spacing:normal;text-anchor:start;fill:none;fill-opacity:1;stroke:#000000;stroke-width:0.0034722;stroke-linecap:round;stroke-linejoin:round;stroke-miterlimit:10.43299961;stroke-dasharray:none;stroke-dashoffset:0;stroke-opacity:1"
     d="M 0.16681918,0.61644371 L 0.052236583,0.61644371 C 0.037012722,0.61644371 0.024622176,0.6288221 0.024622176,0.6440477 L 0.024622176,0.72731106 C 0.024622176,0.74253665 0.037012722,0.75491505 0.052236583,0.75491505 L 0.1657428,0.75491505 C 0.15513523,0.75488032 0.14744431,0.74882133 0.14285406,0.74000195 L 0.052236583,0.74000195 C 0.045259197,0.74000195 0.039549164,0.73429018 0.039549164,0.72731106 L 0.039549164,0.6440477 C 0.039549164,0.63706858 0.045259197,0.63135681 0.052236583,0.63135681 L 0.14285406,0.63135681 C 0.14746167,0.62252006 0.15520467,0.61644371 0.16586433,0.61644371" />
  <path
     id="path1426"
     style="font-style:normal;font-variant:normal;font-weight:normal;font-stretch:normal;letter-spacing:normal;word-spacing:normal;text-anchor:start;fill:#000000;fill-opacity:1;fill-rule:nonzero;stroke:#000000;stroke-width:0;stroke-linecap:round;stroke-linejoin:round;stroke-miterlimit:10.43299961;stroke-dasharray:none;stroke-dashoffset:0;stroke-opacity:1"
     d="M 0.93898438,0.61644371 L 0.82438442,0.61644371 C 0.80915882,0.61644371 0.79678043,0.6288221 0.79678043,0.6440477 L 0.79678043,0.72731106 C 0.79678043,0.74253665 0.80915882,0.75491505 0.82438442,0.75491505 L 0.93789064,0.75491505 C 0.92730043,0.75488032 0.91959214,0.74882133 0.91500884,0.74000195 L 0.82438442,0.74000195 C 0.8174053,0.74000195 0.81169353,0.73429018 0.81169353,0.72731106 L 0.81169353,0.6440477 C 0.81169353,0.63706858 0.8174053,0.63135681 0.82438442,0.63135681 L 0.91500884,0.63135681 C 0.9196095,0.62252006 0.92736987,0.61644371 0.93801216,0.61644371" />
  <path
     id="path1428"
     style="font-style:normal;font-variant:normal;font-weight:normal;font-stretch:normal;letter-spacing:normal;word-spacing:normal;text-anchor:start;fill:none;fill-opacity:1;stroke:#000000;stroke-width:0.0034722;stroke-linecap:round;stroke-linejoin:round;stroke-miterlimit:10.43299961;stroke-dasharray:none;stroke-dashoffset:0;stroke-opacity:1"
     d="M 0.93898438,0.61644371 L 0.82438442,0.61644371 C 0.80915882,0.61644371 0.79678043,0.6288221 0.79678043,0.6440477 L 0.79678043,0.72731106 C 0.79678043,0.74253665 0.80915882,0.75491505 0.82438442,0.75491505 L 0.93789064,0.75491505 C 0.92730043,0.75488032 0.91959214,0.74882133 0.91500884,0.74000195 L 0.82438442,0.74000195 C 0.8174053,0.74000195 0.81169353,0.73429018 0.81169353,0.72731106 L 0.81169353,0.6440477 C 0.81169353,0.63706858 0.8174053,0.63135681 0.82438442,0.63135681 L 0.91500884,0.63135681 C 0.9196095,0.62252006 0.92736987,0.61644371 0.93801216,0.61644371" />
  <path
     id="path1430"
     style="font-style:normal;font-variant:normal;font-weight:normal;font-stretch:normal;letter-spacing:normal;word-spacing:normal;text-anchor:start;fill:#000000;fill-opacity:1;fill-rule:nonzero;stroke:#000000;stroke-width:0;stroke-linecap:round;stroke-linejoin:round;stroke-miterlimit:10.43299961;stroke-dasharray:none;stroke-dashoffset:0;stroke-opacity:1"
     d="M 1.1931841,0.61644371 L 1.0785842,0.61644371 C 1.0633759,0.61644371 1.0509802,0.6288221 1.0509802,0.6440477 L 1.0509802,0.72731106 C 1.0509802,0.74253665 1.0633759,0.75491505 1.0785842,0.75491505 L 1.1920904,0.75491505 C 1.1815002,0.75488032 1.1737919,0.74882133 1.1692086,0.74000195 L 1.0785842,0.74000195 C 1.0716224,0.74000195 1.0658933,0.73429018 1.0658933,0.72731106 L 1.0658933,0.6440477 C 1.0658933,0.63706858 1.0716224,0.63135681 1.0785842,0.63135681 L 1.1692086,0.63135681 C 1.1738266,0.62252006 1.1815696,0.61644371 1.1922119,0.61644371" />
  <path
     id="path1432"
     style="font-style:normal;font-variant:normal;font-weight:normal;font-stretch:normal;letter-spacing:normal;word-spacing:normal;text-anchor:start;fill:none;fill-opacity:1;stroke:#000000;stroke-width:0.0034722;stroke-linecap:round;stroke-linejoin:round;stroke-miterlimit:10.43299961;stroke-dasharray:none;stroke-dashoffset:0;stroke-opacity:1"
     d="M 1.1931841,0.61644371 L 1.0785842,0.61644371 C 1.0633759,0.61644371 1.0509802,0.6288221 1.0509802,0.6440477 L 1.0509802,0.72731106 C 1.0509802,0.74253665 1.0633759,0.75491505 1.0785842,0.75491505 L 1.1920904,0.75491505 C 1.1815002,0.75488032 1.1737919,0.74882133 1.1692086,0.74000195 L 1.0785842,0.74000195 C 1.0716224,0.74000195 1.0658933,0.73429018 1.0658933,0.72731106 L 1.0658933,0.6440477 C 1.0658933,0.63706858 1.0716224,0.63135681 1.0785842,0.63135681 L 1.1692086,0.63135681 C 1.1738266,0.62252006 1.1815696,0.61644371 1.1922119,0.61644371" />
  <path
     id="path1434"
     style="font-style:normal;font-variant:normal;font-weight:normal;font-stretch:normal;letter-spacing:normal;word-spacing:normal;text-anchor:start;fill:#000000;fill-opacity:1;fill-rule:nonzero;stroke:#000000;stroke-width:0;stroke-linecap:round;stroke-linejoin:round;stroke-miterlimit:10.43299961;stroke-dashoffset:0;stroke-opacity:1"
     d="M 0.65544453,0.72731106 L 0.65544453,0.71908194 L 0.74698908,0.6764086 L 0.74698908,0.6764086 L 0.77900276,0.66147814 L 0.77900276,0.64500255 L 0.77900276,0.64500255 L 0.77900276,0.64406506 C 0.77900276,0.6288221 0.76662437,0.61644371 0.75139877,0.61644371 L 0.66813542,0.61644371 C 0.65290982,0.61644371 0.64053143,0.6288221 0.64053143,0.64406506 L 0.64053143,0.72731106 C 0.64053143,0.74253665 0.65290982,0.75493241 0.66813542,0.75493241 L 0.75139877,0.75493241 C 0.76204107,0.75493241 0.77127712,0.74885606 0.77589515,0.74000195 L 0.66813542,0.74000195 C 0.6611563,0.74000195 0.65544453,0.73429018 0.65544453,0.72731106 z M 0.65544453,0.64406506 L 0.65546189,0.64340534 L 0.65551397,0.64276299 L 0.65558342,0.64213799 L 0.65570494,0.64151299 L 0.65584383,0.64090536 L 0.65601744,0.64029772 L 0.65622577,0.63970745 L 0.65645147,0.63913454 L 0.65669452,0.63856162 L 0.65698966,0.63802343 L 0.65728479,0.63748524 L 0.65761465,0.63698177 L 0.65797923,0.6364783 L 0.65834382,0.6359922 L 0.65874312,0.63554081 L 0.65917714,0.63508942 L 0.65961117,0.63467276 L 0.66007992,0.63427346 L 0.66054866,0.63389151 L 0.66105213,0.63354429 L 0.66157296,0.63321444 L 0.66209379,0.63290194 L 0.66264934,0.63262416 L 0.6632049,0.63236375 L 0.66377781,0.63213805 L 0.66436808,0.63194708 L 0.66497572,0.63177347 L 0.66558335,0.63161722 L 0.66620835,0.63151306 L 0.66683334,0.63142625 L 0.6674757,0.63137417 L 0.66813542,0.63137417 L 0.75139877,0.63137417 C 0.7583779,0.63137417 0.76407231,0.63706858 0.76407231,0.64406506 L 0.76407231,0.65196432 L 0.65544453,0.70262371 L 0.65544453,0.64406506 z M 0.65544453,0.72731106 L 0.65544453,0.71908194 L 0.74698908,0.6764086 L 0.74698908,0.6764086 L 0.77900276,0.66147814 L 0.77900276,0.64500255 L 0.77900276,0.64500255 L 0.77900276,0.64406506 C 0.77900276,0.6288221 0.76662437,0.61644371 0.75139877,0.61644371 L 0.66813542,0.61644371 C 0.65290982,0.61644371 0.64053143,0.6288221 0.64053143,0.64406506 L 0.64053143,0.72731106 C 0.64053143,0.74253665 0.65290982,0.75493241 0.66813542,0.75493241 L 0.75139877,0.75493241 C 0.76204107,0.75493241 0.77127712,0.74885606 0.77589515,0.74000195 L 0.66813542,0.74000195 C 0.6611563,0.74000195 0.65544453,0.73429018 0.65544453,0.72731106 z M 0.65544453,0.64406506 L 0.65546189,0.64340534 L 0.65551397,0.64276299 L 0.65558342,0.64213799 L 0.65570494,0.64151299 L 0.65584383,0.64090536 L 0.65601744,0.64029772 L 0.65622577,0.63970745 L 0.65645147,0.63913454 L 0.65669452,0.63856162 L 0.65698966,0.63802343 L 0.65728479,0.63748524 L 0.65761465,0.63698177 L 0.65797923,0.6364783 L 0.65834382,0.6359922 L 0.65874312,0.63554081 L 0.65917714,0.63508942 L 0.65961117,0.63467276 L 0.66007992,0.63427346 L 0.66054866,0.63389151 L 0.66105213,0.63354429 L 0.66157296,0.63321444 L 0.66209379,0.63290194 L 0.66264934,0.63262416 L 0.6632049,0.63236375 L 0.66377781,0.63213805 L 0.66436808,0.63194708 L 0.66497572,0.63177347 L 0.66558335,0.63161722 L 0.66620835,0.63151306 L 0.66683334,0.63142625 L 0.6674757,0.63137417 L 0.66813542,0.63137417 L 0.75139877,0.63137417 C 0.7583779,0.63137417 0.76407231,0.63706858 0.76407231,0.64406506 L 0.76407231,0.65196432 L 0.65544453,0.70262371 L 0.65544453,0.64406506 z " />
  <path
     id="path1442"
     style="font-style:normal;font-variant:normal;font-weight:normal;font-stretch:normal;letter-spacing:normal;word-spacing:normal;text-anchor:start;fill:#000000;fill-opacity:1;fill-rule:nonzero;stroke:#000000;stroke-width:0;stroke-linecap:round;stroke-linejoin:round;stroke-miterlimit:10.43299961;stroke-dashoffset:0;stroke-opacity:1"
     d="M 1.3100931,0.64406506 L 1.3100931,0.65229417 L 1.2185486,0.69496751 L 1.2185486,0.69496751 L 1.1865349,0.70989797 L 1.1865349,0.7263562 L 1.1865349,0.7263562 L 1.1865349,0.72731106 C 1.1865349,0.74253665 1.1989133,0.75493241 1.2141389,0.75493241 L 1.2974022,0.75493241 C 1.3126278,0.75493241 1.3250062,0.74253665 1.3250062,0.72731106 L 1.3250062,0.64406506 C 1.3250062,0.6288221 1.3126278,0.61644371 1.2974022,0.61644371 L 1.2141389,0.61644371 C 1.2034966,0.61644371 1.1942432,0.62252006 1.1896425,0.63137417 L 1.2974022,0.63137417 C 1.3043813,0.63137417 1.3100931,0.63706858 1.3100931,0.64406506 z M 1.3100931,0.72731106 L 1.3100758,0.72797077 L 1.3100237,0.72861313 L 1.3099369,0.72923813 L 1.3098327,0.72986312 L 1.3096938,0.73048812 L 1.3095202,0.73107839 L 1.3093119,0.73166867 L 1.3090862,0.73224158 L 1.3088258,0.73281449 L 1.308548,0.73335268 L 1.3082529,0.73389087 L 1.307923,0.73439434 L 1.3075584,0.73489781 L 1.3071765,0.73538392 L 1.3067772,0.73583531 L 1.3063605,0.73628669 L 1.3059265,0.73670336 L 1.3054577,0.73710266 L 1.3049716,0.7374846 L 1.3044855,0.73783182 L 1.3039647,0.73816168 L 1.3034439,0.73847418 L 1.3028883,0.73875195 L 1.3023327,0.73901237 L 1.3017598,0.73923806 L 1.3011696,0.73942903 L 1.3005619,0.73960264 L 1.2999543,0.73974153 L 1.2993293,0.73986306 L 1.2986869,0.73994986 L 1.2980446,0.73998459 L 1.2974022,0.74000195 L 1.2141389,0.74000195 C 1.2071597,0.74000195 1.201448,0.73429018 1.201448,0.72731106 L 1.201448,0.7194118 L 1.3100931,0.6687524 L 1.3100931,0.72731106 z M 1.3100931,0.64406506 L 1.3100931,0.65229417 L 1.2185486,0.69496751 L 1.2185486,0.69496751 L 1.1865349,0.70989797 L 1.1865349,0.7263562 L 1.1865349,0.7263562 L 1.1865349,0.72731106 C 1.1865349,0.74253665 1.1989133,0.75493241 1.2141389,0.75493241 L 1.2974022,0.75493241 C 1.3126278,0.75493241 1.3250062,0.74253665 1.3250062,0.72731106 L 1.3250062,0.64406506 C 1.3250062,0.6288221 1.3126278,0.61644371 1.2974022,0.61644371 L 1.2141389,0.61644371 C 1.2034966,0.61644371 1.1942432,0.62252006 1.1896425,0.63137417 L 1.2974022,0.63137417 C 1.3043813,0.63137417 1.3100931,0.63706858 1.3100931,0.64406506 z M 1.3100931,0.72731106 L 1.3100758,0.72797077 L 1.3100237,0.72861313 L 1.3099369,0.72923813 L 1.3098327,0.72986312 L 1.3096938,0.73048812 L 1.3095202,0.73107839 L 1.3093119,0.73166867 L 1.3090862,0.73224158 L 1.3088258,0.73281449 L 1.308548,0.73335268 L 1.3082529,0.73389087 L 1.307923,0.73439434 L 1.3075584,0.73489781 L 1.3071765,0.73538392 L 1.3067772,0.73583531 L 1.3063605,0.73628669 L 1.3059265,0.73670336 L 1.3054577,0.73710266 L 1.3049716,0.7374846 L 1.3044855,0.73783182 L 1.3039647,0.73816168 L 1.3034439,0.73847418 L 1.3028883,0.73875195 L 1.3023327,0.73901237 L 1.3017598,0.73923806 L 1.3011696,0.73942903 L 1.3005619,0.73960264 L 1.2999543,0.73974153 L 1.2993293,0.73986306 L 1.2986869,0.73994986 L 1.2980446,0.73998459 L 1.2974022,0.74000195 L 1.2141389,0.74000195 C 1.2071597,0.74000195 1.201448,0.73429018 1.201448,0.72731106 L 1.201448,0.7194118 L 1.3100931,0.6687524 L 1.3100931,0.72731106 z " />
  <polygon
     id="polygon1450"
     style="font-style:normal;font-variant:normal;font-weight:normal;font-stretch:normal;letter-spacing:normal;word-spacing:normal;text-anchor:start;fill:#000000;fill-opacity:1;fill-rule:nonzero;stroke:#000000;stroke-width:0;stroke-linecap:butt;stroke-linejoin:round;stroke-miterlimit:10.43299961;stroke-dasharray:none;stroke-dashoffset:0;stroke-opacity:1"
     points="599.47,309.16 599.47,277.48 608.07,277.48 608.07,309.16 599.47,309.16 "
     transform="matrix(1.7361e-3,0,0,-1.7361e-3,-2.628722e-2,1.083281)" />
  <polygon
     id="polygon1452"
     style="font-style:normal;font-variant:normal;font-weight:normal;font-stretch:normal;letter-spacing:normal;word-spacing:normal;text-anchor:start;fill:#000000;fill-opacity:1;fill-rule:nonzero;stroke:#000000;stroke-width:0;stroke-linecap:butt;stroke-linejoin:round;stroke-miterlimit:10.43299961;stroke-dasharray:none;stroke-dashoffset:0;stroke-opacity:1"
     points="599.47,189.12 608.07,189.12 608.07,269.05 599.47,269.05 599.47,189.12 "
     transform="matrix(1.7361e-3,0,0,-1.7361e-3,-2.628722e-2,1.083281)" />
  <polygon
     id="polygon1454"
     style="font-style:normal;font-variant:normal;font-weight:normal;font-stretch:normal;letter-spacing:normal;word-spacing:normal;text-anchor:start;fill:none;fill-opacity:1;stroke:#000000;stroke-width:2;stroke-linecap:butt;stroke-linejoin:round;stroke-miterlimit:10.43299961;stroke-dasharray:none;stroke-dashoffset:0;stroke-opacity:1"
     points="599.47,309.16 599.47,277.48 608.07,277.48 608.07,309.16 599.47,309.16 "
     transform="matrix(1.7361e-3,0,0,-1.7361e-3,-2.628722e-2,1.083281)" />
  <polygon
     id="polygon1456"
     style="font-style:normal;font-variant:normal;font-weight:normal;font-stretch:normal;letter-spacing:normal;word-spacing:normal;text-anchor:start;fill:none;fill-opacity:1;stroke:#000000;stroke-width:2;stroke-linecap:butt;stroke-linejoin:round;stroke-miterlimit:10.43299961;stroke-dasharray:none;stroke-dashoffset:0;stroke-opacity:1"
     points="599.47,189.12 608.07,189.12 608.07,269.05 599.47,269.05 599.47,189.12 "
     transform="matrix(1.7361e-3,0,0,-1.7361e-3,-2.628722e-2,1.083281)" />
  <path
     id="path1458"
     style="font-style:normal;font-variant:normal;font-weight:normal;font-stretch:normal;letter-spacing:normal;word-spacing:normal;text-anchor:start;fill:#000000;fill-opacity:1;fill-rule:nonzero;stroke:#000000;stroke-width:0;stroke-linecap:round;stroke-linejoin:round;stroke-miterlimit:10.43299961;stroke-dasharray:none;stroke-dashoffset:0;stroke-opacity:1"
     d="M 1.3607872,0.72731106 L 1.3607872,0.54654832 L 1.3458741,0.54654832 L 1.3458741,0.72731106 C 1.3458741,0.74253665 1.3582525,0.75493241 1.3734781,0.75493241 L 1.3906308,0.75493241 L 1.3906308,0.74000195 L 1.3734781,0.74000195 C 1.366499,0.74000195 1.3607872,0.73429018 1.3607872,0.72731106 z " />
  <path
     id="path1460"
     style="font-style:normal;font-variant:normal;font-weight:normal;font-stretch:normal;letter-spacing:normal;word-spacing:normal;text-anchor:start;fill:none;fill-opacity:1;stroke:#000000;stroke-width:0.0034722;stroke-linecap:round;stroke-linejoin:round;stroke-miterlimit:10.43299961;stroke-dasharray:none;stroke-dashoffset:0;stroke-opacity:1"
     d="M 1.3607872,0.72731106 L 1.3607872,0.54654832 L 1.3458741,0.54654832 L 1.3458741,0.72731106 C 1.3458741,0.74253665 1.3582525,0.75493241 1.3734781,0.75493241 L 1.3906308,0.75493241 L 1.3906308,0.74000195 L 1.3734781,0.74000195 C 1.366499,0.74000195 1.3607872,0.73429018 1.3607872,0.72731106 z " />
  <path
     id="path1466"
     style="font-style:normal;font-variant:normal;font-weight:normal;font-stretch:normal;letter-spacing:normal;word-spacing:normal;text-anchor:start;fill:#000000;fill-opacity:1;fill-rule:nonzero;stroke:#000000;stroke-width:0;stroke-linecap:round;stroke-linejoin:round;stroke-miterlimit:10.43299961;stroke-dasharray:none;stroke-dashoffset:0;stroke-opacity:1"
     d="M 0.97695289,0.74000195 L 0.97629317,0.73998459 L 0.97565081,0.73994986 L 0.97502582,0.73986306 L 0.97440082,0.73974153 L 0.97377582,0.73960264 L 0.97318555,0.73942903 L 0.97259528,0.73923806 L 0.97202236,0.73901237 L 0.97144945,0.73875195 L 0.97091126,0.73847418 L 0.97037307,0.73816168 L 0.9698696,0.73783182 L 0.96936613,0.7374846 L 0.96888002,0.73710266 L 0.96842864,0.73670336 L 0.96797725,0.73628669 L 0.96756059,0.73583531 L 0.96716128,0.73538392 L 0.96677934,0.73489781 L 0.96643212,0.73439434 L 0.96610226,0.73389087 L 0.96578976,0.73335268 L 0.96551199,0.73281449 L 0.96526893,0.73224158 L 0.96502588,0.73166867 L 0.96483491,0.73107839 L 0.9646613,0.73048812 L 0.96452241,0.72986312 L 0.96440088,0.72923813 L 0.96433144,0.72861313 L 0.96427936,0.72797077 L 0.964262,0.72731106 L 0.964262,0.54654832 L 0.94933154,0.52918732 L 0.94933154,0.70995006 C 0.94933154,0.74253665 0.96172729,0.75493241 0.97695289,0.75493241 L 0.99408819,0.75493241 L 0.99408819,0.74000195 L 0.97695289,0.74000195 z " />
  <path
     id="path1468"
     style="font-style:normal;font-variant:normal;font-weight:normal;font-stretch:normal;letter-spacing:normal;word-spacing:normal;text-anchor:start;fill:none;fill-opacity:1;stroke:#000000;stroke-width:0.0034722;stroke-linecap:round;stroke-linejoin:round;stroke-miterlimit:10.43299961;stroke-dasharray:none;stroke-dashoffset:0;stroke-opacity:1"
     d="M 0.97695289,0.74000195 L 0.97629317,0.73998459 L 0.97565081,0.73994986 L 0.97502582,0.73986306 L 0.97440082,0.73974153 L 0.97377582,0.73960264 L 0.97318555,0.73942903 L 0.97259528,0.73923806 L 0.97202236,0.73901237 L 0.97144945,0.73875195 L 0.97091126,0.73847418 L 0.97037307,0.73816168 L 0.9698696,0.73783182 L 0.96936613,0.7374846 L 0.96888002,0.73710266 L 0.96842864,0.73670336 L 0.96797725,0.73628669 L 0.96756059,0.73583531 L 0.96716128,0.73538392 L 0.96677934,0.73489781 L 0.96643212,0.73439434 L 0.96610226,0.73389087 L 0.96578976,0.73335268 L 0.96551199,0.73281449 L 0.96526893,0.73224158 L 0.96502588,0.73166867 L 0.96483491,0.73107839 L 0.9646613,0.73048812 L 0.96452241,0.72986312 L 0.96440088,0.72923813 L 0.96433144,0.72861313 L 0.96427936,0.72797077 L 0.964262,0.72731106 L 0.964262,0.54654832 L 0.94933154,0.52918732 L 0.94933154,0.70995006 C 0.94933154,0.74253665 0.96172729,0.75493241 0.97695289,0.75493241 L 0.99408819,0.75493241 L 0.99408819,0.74000195 L 0.97695289,0.74000195 z " />
  <path
     id="path1470"
     style="font-style:normal;font-variant:normal;font-weight:normal;font-stretch:normal;letter-spacing:normal;word-spacing:normal;text-anchor:start;fill:#ffffff;fill-opacity:1;fill-rule:nonzero;stroke:#ffffff;stroke-width:0;stroke-linecap:round;stroke-linejoin:round;stroke-miterlimit:10.43299961;stroke-dasharray:none;stroke-dashoffset:0;stroke-opacity:1"
     d="M 0.60360458,0.61059305 L 0.60334417,0.61059305 L 0.60334417,0.72731106 C 0.60334417,0.73429018 0.5976324,0.74000195 0.59065328,0.74000195 L 0.57907349,0.74000195 L 0.57907349,0.74000195 L 0.56889994,0.74000195 C 0.56192082,0.74000195 0.55622641,0.73429018 0.55622641,0.72731106 L 0.55622641,0.64406506 C 0.55622641,0.6288221 0.54383066,0.61644371 0.52860506,0.61644371 L 0.50738992,0.61644371 C 0.49216432,0.61644371 0.47978593,0.6288221 0.47978593,0.64406506 L 0.47978593,0.75493241 L 0.49469903,0.75493241 L 0.49469903,0.64406506 C 0.49469903,0.63706858 0.5004108,0.63137417 0.50738992,0.63137417 L 0.52860506,0.63137417 C 0.53558418,0.63137417 0.54129595,0.63706858 0.54129595,0.64406506 L 0.54129595,0.72731106 C 0.54129595,0.74253665 0.55369171,0.75493241 0.56889994,0.75493241 L 0.58207694,0.75493241 L 0.58207694,0.75493241 L 0.59065328,0.75493241 C 0.60587887,0.75493241 0.61827463,0.74253665 0.61827463,0.72731106 L 0.61827463,0.6142215 C 0.61827463,0.60724238 0.62396904,0.60154797 0.63094816,0.60154797 L 0.6820763,0.60154797 L 0.6820763,0.60154797 L 0.99408819,0.60154797 L 0.99408819,0.58661751 L 0.63094816,0.58661751 C 0.61697255,0.58661751 0.60541013,0.59708619 0.60360458,0.61059305 z " />
  <path
     id="path1472"
     style="font-style:normal;font-variant:normal;font-weight:normal;font-stretch:normal;letter-spacing:normal;word-spacing:normal;text-anchor:start;fill:none;fill-opacity:1;stroke:#000000;stroke-width:0.00607639;stroke-linecap:round;stroke-linejoin:round;stroke-miterlimit:10.43299961;stroke-dasharray:none;stroke-dashoffset:0;stroke-opacity:1"
     d="M 0.60360458,0.61059305 L 0.60334417,0.61059305 L 0.60334417,0.72731106 C 0.60334417,0.73429018 0.5976324,0.74000195 0.59065328,0.74000195 L 0.57907349,0.74000195 L 0.57907349,0.74000195 L 0.56889994,0.74000195 C 0.56192082,0.74000195 0.55622641,0.73429018 0.55622641,0.72731106 L 0.55622641,0.64406506 C 0.55622641,0.6288221 0.54383066,0.61644371 0.52860506,0.61644371 L 0.50738992,0.61644371 C 0.49216432,0.61644371 0.47978593,0.6288221 0.47978593,0.64406506 L 0.47978593,0.75493241 L 0.49469903,0.75493241 L 0.49469903,0.64406506 C 0.49469903,0.63706858 0.5004108,0.63137417 0.50738992,0.63137417 L 0.52860506,0.63137417 C 0.53558418,0.63137417 0.54129595,0.63706858 0.54129595,0.64406506 L 0.54129595,0.72731106 C 0.54129595,0.74253665 0.55369171,0.75493241 0.56889994,0.75493241 L 0.58207694,0.75493241 L 0.58207694,0.75493241 L 0.59065328,0.75493241 C 0.60587887,0.75493241 0.61827463,0.74253665 0.61827463,0.72731106 L 0.61827463,0.6142215 C 0.61827463,0.60724238 0.62396904,0.60154797 0.63094816,0.60154797 L 0.6820763,0.60154797 L 0.6820763,0.60154797 L 0.99408819,0.60154797 L 0.99408819,0.58661751 L 0.63094816,0.58661751 C 0.61697255,0.58661751 0.60541013,0.59708619 0.60360458,0.61059305 z " />
  <path
     id="path1474"
     style="font-style:normal;font-variant:normal;font-weight:normal;font-stretch:normal;letter-spacing:normal;word-spacing:normal;text-anchor:start;fill:#ffffff;fill-opacity:1;fill-rule:nonzero;stroke:#ffffff;stroke-width:0;stroke-linecap:round;stroke-linejoin:round;stroke-miterlimit:10.43299961;stroke-dasharray:none;stroke-dashoffset:0;stroke-opacity:1"
     d="M 0.44483824,0.61644371 L 0.44483824,0.72731106 C 0.44483824,0.73429018 0.43912647,0.74000195 0.43214735,0.74000195 L 0.4109322,0.74000195 C 0.40395308,0.74000195 0.39824131,0.73429018 0.39824131,0.72731106 L 0.39824131,0.64406506 C 0.39824131,0.6288221 0.38586292,0.61644371 0.37061996,0.61644371 L 0.35746032,0.61644371 L 0.35746032,0.61644371 L 0.34888399,0.61644371 C 0.33365839,0.61644371 0.32128,0.6288221 0.32128,0.64406506 L 0.32128,0.81918547 L 0.3361931,0.80425501 L 0.3361931,0.64406506 C 0.3361931,0.63706858 0.34190487,0.63137417 0.34888399,0.63137417 L 0.36046378,0.63137417 L 0.36046378,0.63137417 L 0.37061996,0.63137417 C 0.37761645,0.63137417 0.38331085,0.63706858 0.38331085,0.64406506 L 0.38331085,0.72731106 C 0.38331085,0.74253665 0.39570661,0.75493241 0.4109322,0.75493241 L 0.43214735,0.75493241 C 0.44737294,0.75493241 0.45975134,0.74253665 0.45975134,0.72731106 L 0.45975134,0.61644371 L 0.44483824,0.61644371 z " />
  <path
     id="path1476"
     style="font-style:normal;font-variant:normal;font-weight:normal;font-stretch:normal;letter-spacing:normal;word-spacing:normal;text-anchor:start;fill:none;fill-opacity:1;stroke:#000000;stroke-width:0.00607639;stroke-linecap:round;stroke-linejoin:round;stroke-miterlimit:10.43299961;stroke-dasharray:none;stroke-dashoffset:0;stroke-opacity:1"
     d="M 0.44483824,0.61644371 L 0.44483824,0.72731106 C 0.44483824,0.73429018 0.43912647,0.74000195 0.43214735,0.74000195 L 0.4109322,0.74000195 C 0.40395308,0.74000195 0.39824131,0.73429018 0.39824131,0.72731106 L 0.39824131,0.64406506 C 0.39824131,0.6288221 0.38586292,0.61644371 0.37061996,0.61644371 L 0.35746032,0.61644371 L 0.35746032,0.61644371 L 0.34888399,0.61644371 C 0.33365839,0.61644371 0.32128,0.6288221 0.32128,0.64406506 L 0.32128,0.81918547 L 0.3361931,0.80425501 L 0.3361931,0.64406506 C 0.3361931,0.63706858 0.34190487,0.63137417 0.34888399,0.63137417 L 0.36046378,0.63137417 L 0.36046378,0.63137417 L 0.37061996,0.63137417 C 0.37761645,0.63137417 0.38331085,0.63706858 0.38331085,0.64406506 L 0.38331085,0.72731106 C 0.38331085,0.74253665 0.39570661,0.75493241 0.4109322,0.75493241 L 0.43214735,0.75493241 C 0.44737294,0.75493241 0.45975134,0.74253665 0.45975134,0.72731106 L 0.45975134,0.61644371 L 0.44483824,0.61644371 z " />
</svg>
