<?xml version="1.0" encoding="UTF-8" standalone="no"?>
<!-- Created with Inkscape (http://www.inkscape.org/) -->

<svg
   xmlns:dc="http://purl.org/dc/elements/1.1/"
   xmlns:cc="http://creativecommons.org/ns#"
   xmlns:rdf="http://www.w3.org/1999/02/22-rdf-syntax-ns#"
   xmlns:svg="http://www.w3.org/2000/svg"
   xmlns="http://www.w3.org/2000/svg"
   xmlns:sodipodi="http://sodipodi.sourceforge.net/DTD/sodipodi-0.dtd"
   xmlns:inkscape="http://www.inkscape.org/namespaces/inkscape"
   width="1300"
   height="310"
   id="svg2"
   sodipodi:version="0.32"
   inkscape:version="0.48.4 r9943 custom"
   version="1.0"
   sodipodi:docname="bw-full-sadow.svg"
   inkscape:output_extension="org.inkscape.output.svg.inkscape"
   inkscape:export-filename="/home/acastro/connectical/artwork/logo/bw-full.png"
   inkscape:export-xdpi="20.360001"
   inkscape:export-ydpi="20.360001">
  <defs
     id="defs4">
    <filter
       inkscape:collect="always"
       x="-0.28800002"
       width="1.576"
       y="-0.096000001"
       height="1.192"
       id="filter3381"
       color-interpolation-filters="sRGB">
      <feGaussianBlur
         inkscape:collect="always"
         stdDeviation="8.5039371"
         id="feGaussianBlur3383" />
    </filter>
    <filter
       inkscape:collect="always"
       x="-0.28799999"
       width="1.576"
       y="-0.096000001"
       height="1.192"
       id="filter3385"
       color-interpolation-filters="sRGB">
      <feGaussianBlur
         inkscape:collect="always"
         stdDeviation="8.5039371"
         id="feGaussianBlur3387" />
    </filter>
    <filter
       inkscape:collect="always"
       x="-0.02062769"
       width="1.0412554"
       y="-0.14130221"
       height="1.2826045"
       id="filter3455"
       color-interpolation-filters="sRGB">
      <feGaussianBlur
         inkscape:collect="always"
         stdDeviation="7.6470183"
         id="feGaussianBlur3457" />
    </filter>
  </defs>
  <sodipodi:namedview
     id="base"
     pagecolor="#ffffff"
     bordercolor="#666666"
     borderopacity="1.0"
     gridtolerance="10000"
     guidetolerance="10"
     objecttolerance="10"
     inkscape:pageopacity="0.0"
     inkscape:pageshadow="2"
     inkscape:zoom="0.78843537"
     inkscape:cx="674.02127"
     inkscape:cy="160.50646"
     inkscape:document-units="mm"
     inkscape:current-layer="layer1"
     width="1470px"
     height="389.76376px"
     showguides="false"
     inkscape:guide-bbox="true"
     inkscape:window-width="1280"
     inkscape:window-height="715"
     inkscape:window-x="0"
     inkscape:window-y="22"
     inkscape:guide-points="false"
     units="px"
     showgrid="false"
     fit-margin-top="0"
     fit-margin-left="0"
     fit-margin-right="0"
     fit-margin-bottom="0"
     inkscape:window-maximized="0">
    <sodipodi:guide
       orientation="vertical"
       position="-2.7294922e-07,-34.37542"
       id="guide2162" />
    <sodipodi:guide
       orientation="horizontal"
       position="-35.433071,1.0576516"
       id="guide2164" />
    <sodipodi:guide
       orientation="horizontal"
       position="-35.433071,319.95529"
       id="guide2166" />
    <sodipodi:guide
       orientation="vertical"
       position="318.89764,-34.37542"
       id="guide2168" />
    <sodipodi:guide
       orientation="vertical"
       position="53.149606,-34.37542"
       id="guide3141" />
    <sodipodi:guide
       orientation="vertical"
       position="265.74803,-34.37542"
       id="guide3143" />
    <sodipodi:guide
       orientation="horizontal"
       position="-35.433071,89.64033"
       id="guide3145" />
    <sodipodi:guide
       orientation="horizontal"
       position="-35.433071,266.80568"
       id="guide3147" />
    <sodipodi:guide
       orientation="horizontal"
       position="-35.433071,231.37261"
       id="guide3149" />
    <sodipodi:guide
       orientation="horizontal"
       position="-35.433071,54.207257"
       id="guide3151" />
    <sodipodi:guide
       orientation="vertical"
       position="88.582679,-34.37542"
       id="guide3153" />
    <sodipodi:guide
       orientation="vertical"
       position="230.31496,-34.37542"
       id="guide3155" />
    <sodipodi:guide
       orientation="vertical"
       position="124.01575,-34.37542"
       id="guide3157" />
    <sodipodi:guide
       orientation="vertical"
       position="194.88189,-34.37542"
       id="guide3159" />
    <sodipodi:guide
       orientation="horizontal"
       position="-35.433071,160.50647"
       id="guide5186" />
    <sodipodi:guide
       orientation="horizontal"
       position="-35.433071,238.32506"
       id="guide10076" />
  </sodipodi:namedview>
  <metadata
     id="metadata7">
    <rdf:RDF>
      <cc:Work
         rdf:about="">
        <dc:format>image/svg+xml</dc:format>
        <dc:type
           rdf:resource="http://purl.org/dc/dcmitype/StillImage" />
      </cc:Work>
    </rdf:RDF>
  </metadata>
  <g
     inkscape:label="Layer 1"
     inkscape:groupmode="layer"
     id="layer1"
     transform="translate(-35.433071,-45.388346)">
    <path
       sodipodi:nodetypes="ccccccccc"
       id="path2197"
       d="m 72.769646,94.089131 70.866144,0 0,35.433069 -35.43307,0 0,141.73229 35.43307,0 0,35.43307 -70.866144,0 0,-212.598429 z"
       style="opacity:0.8;fill:#000000;fill-opacity:1;fill-rule:evenodd;stroke:none;filter:url(#filter3385)"
       inkscape:export-filename="/home/acastro/connectical/webdesign/i/headlogo3.png"
       inkscape:export-xdpi="20.360001"
       inkscape:export-ydpi="20.360001"
       inkscape:connector-curvature="0" />
    <path
       sodipodi:nodetypes="ccccccccc"
       style="opacity:0.8;fill:#000000;fill-opacity:1;fill-rule:evenodd;stroke:none;filter:url(#filter3381)"
       d="m 285.36807,94.089131 -70.86614,0 0,35.433069 35.43307,0 0,141.73228 -35.43307,0 0,35.43307 70.86614,0 0,-212.598419 z"
       id="path2199"
       inkscape:export-filename="/home/acastro/connectical/webdesign/i/headlogo3.png"
       inkscape:export-xdpi="20.360001"
       inkscape:export-ydpi="20.360001"
       inkscape:connector-curvature="0" />
    <path
       style="fill:#ffffff;fill-opacity:1;fill-rule:evenodd;stroke:none"
       d="m 72.769646,88.089131 70.866144,0 0,35.433069 -35.43307,0 0,141.73229 35.43307,0 0,35.43307 -70.866144,0 0,-212.598429 z"
       id="path3161"
       sodipodi:nodetypes="ccccccccc"
       inkscape:export-filename="/home/acastro/connectical/webdesign/i/headlogo3.png"
       inkscape:export-xdpi="20.360001"
       inkscape:export-ydpi="20.360001"
       inkscape:connector-curvature="0" />
    <path
       id="path3163"
       d="m 285.36807,88.089134 -70.86614,0 0,35.433066 35.43307,0 0,141.73228 -35.43307,0 0,35.43307 70.86614,0 0,-212.598416 z"
       style="fill:#ffffff;fill-opacity:1;fill-rule:evenodd;stroke:none"
       sodipodi:nodetypes="ccccccccc"
       inkscape:export-filename="/home/acastro/connectical/webdesign/i/headlogo3.png"
       inkscape:export-xdpi="20.360001"
       inkscape:export-ydpi="20.360001"
       inkscape:connector-curvature="0" />
    <g
       transform="matrix(1.0715256,0,0,1.0715256,-157.6193,0.5458024)"
       style="fill:#000000;fill-opacity:1;stroke:none;filter:url(#filter3455)"
       id="g3409"
       inkscape:export-filename="/home/acastro/connectical/webdesign/i/headlogo3.png"
       inkscape:export-xdpi="20.360001"
       inkscape:export-ydpi="20.360001">
      <path
         style="font-size:185.09587097px;font-style:normal;font-variant:normal;font-weight:normal;font-stretch:normal;text-align:start;line-height:125%;writing-mode:lr-tb;text-anchor:start;fill:#000000;fill-opacity:1;stroke:none;font-family:Emeplus2p"
         d="m 518.20068,158.22402 c -10.85901,9e-5 -19.31171,3.39351 -25.35814,10.18027 -6.04649,6.66352 -9.06972,16.1651 -9.0697,28.50476 -2e-5,11.84618 3.2083,21.28606 9.62499,28.31967 6.41661,7.03366 14.68423,10.55048 24.80285,10.55047 8.63773,1e-5 16.90535,-2.09774 24.80284,-6.29326 l 3.70193,10.92065 c -9.25488,4.31891 -18.94156,6.47836 -29.06006,6.47836 -14.31413,0 -25.91345,-4.50399 -34.79803,-13.512 -8.88461,-9.13137 -13.32691,-21.28599 -13.32689,-36.46389 -2e-5,-15.67138 4.25718,-27.88769 12.7716,-36.64898 8.51439,-8.8845 20.29882,-13.3268 35.35332,-13.3269 10.1185,1e-4 19.80518,2.15955 29.06006,6.47835 l -3.70193,11.29085 c -7.89749,-4.31881 -16.16511,-6.47826 -24.80284,-6.47835"
         id="path3411"
         inkscape:connector-curvature="0" />
      <path
         id="path3413"
         style="font-size:185.09587097px;font-style:normal;font-variant:normal;font-weight:normal;font-stretch:normal;text-align:start;line-height:125%;writing-mode:lr-tb;text-anchor:start;fill:#000000;fill-opacity:1;stroke:none;font-family:Emeplus2p"
         d="m 627.06847,168.40429 c -5.55294,-6.91016 -13.20357,-10.36528 -22.95189,-10.36537 -9.74842,9e-5 -17.46074,3.45521 -23.13698,10.36537 -5.5529,6.78692 -8.32934,16.2885 -8.32932,28.50476 -2e-5,12.21637 2.77642,21.77965 8.32932,28.68986 5.67624,6.78687 13.38856,10.18029 23.13698,10.18028 9.74832,1e-5 17.39895,-3.39341 22.95189,-10.18028 5.6762,-6.91021 8.51433,-16.47349 8.51442,-28.68986 -9e-5,-12.21626 -2.83822,-21.71784 -8.51442,-28.50476 m 9.99518,64.96865 c -8.26769,9.00801 -19.25004,13.512 -32.94707,13.512 -13.69712,0 -24.67948,-4.50399 -32.94705,-13.512 -8.26764,-9.00797 -12.40144,-21.16259 -12.40144,-36.46389 0,-15.30119 4.1338,-27.4558 12.40144,-36.46388 8.26757,-9.0079 19.24993,-13.5119 32.94705,-13.512 13.69703,1e-4 24.67938,4.5041 32.94707,13.512 8.26752,9.00808 12.40132,21.16269 12.40142,36.46388 -10e-5,15.3013 -4.1339,27.45592 -12.40142,36.46389"
         inkscape:connector-curvature="0" />
      <path
         style="font-size:185.09587097px;font-style:normal;font-variant:normal;font-weight:normal;font-stretch:normal;text-align:start;line-height:125%;writing-mode:lr-tb;text-anchor:start;fill:#000000;fill-opacity:1;stroke:none;font-family:Emeplus2p"
         d="m 663.53197,148.78413 12.95671,0 0.1851,17.21391 0.37019,0 c 3.7019,-5.92298 8.45267,-10.55037 14.25239,-13.88219 5.79962,-3.45502 11.96948,-5.18258 18.50959,-5.18268 10.85889,1e-4 18.8797,3.39352 24.06245,10.18027 5.306,6.66354 7.95903,17.27569 7.95912,31.83649 l 0,56.08405 -13.32689,0 0,-54.97347 c -9e-5,-11.96947 -1.72765,-20.23707 -5.18269,-24.80285 -3.4552,-4.68901 -9.37826,-7.03355 -17.76921,-7.03364 -7.28048,9e-5 -13.88223,3.51691 -19.80525,10.55046 -5.79971,7.03372 -8.69954,15.30132 -8.69951,24.80285 l 0,51.45665 -13.512,0 0,-96.24985"
         id="path3415"
         inkscape:connector-curvature="0" />
      <path
         style="font-size:185.09587097px;font-style:normal;font-variant:normal;font-weight:normal;font-stretch:normal;text-align:start;line-height:125%;writing-mode:lr-tb;text-anchor:start;fill:#000000;fill-opacity:1;stroke:none;font-family:Emeplus2p"
         d="m 761.45597,148.78413 12.95671,0 0.18509,17.21391 0.3702,0 c 3.70189,-5.92298 8.45267,-10.55037 14.25239,-13.88219 5.79962,-3.45502 11.96948,-5.18258 18.50958,-5.18268 10.85889,1e-4 18.8797,3.39352 24.06247,10.18027 5.30598,6.66354 7.95903,17.27569 7.95912,31.83649 l 0,56.08405 -13.32691,0 0,-54.97347 c -8e-5,-11.96947 -1.72763,-20.23707 -5.18268,-24.80285 -3.4552,-4.68901 -9.37826,-7.03355 -17.76921,-7.03364 -7.28049,9e-5 -13.88222,3.51691 -19.80526,10.55046 -5.7997,7.03372 -8.69953,15.30132 -8.6995,24.80285 l 0,51.45665 -13.512,0 0,-96.24985"
         id="path3417"
         inkscape:connector-curvature="0" />
      <path
         id="path3419"
         style="font-size:185.09587097px;font-style:normal;font-variant:normal;font-weight:normal;font-stretch:normal;text-align:start;line-height:125%;writing-mode:lr-tb;text-anchor:start;fill:#000000;fill-opacity:1;stroke:none;font-family:Emeplus2p"
         d="m 870.78382,202.09174 c 0.24677,10.4888 3.39339,18.75641 9.43988,24.80285 6.16983,6.04648 14.25234,9.06971 24.24756,9.06969 9.87172,2e-5 19.31161,-2.46793 28.31968,-7.40383 l 3.70192,10.55046 c -10.36546,5.18269 -21.4712,7.77403 -33.31727,7.77403 -13.82053,0 -24.98796,-4.50399 -33.50235,-13.512 -8.51442,-9.00797 -12.77163,-21.16259 -12.77162,-36.46389 -10e-6,-15.54798 3.9487,-27.7643 11.84614,-36.64898 8.02079,-8.8845 18.87974,-13.3268 32.57687,-13.3269 13.32685,1e-4 23.6305,4.2573 30.91101,12.77161 7.40376,8.3911 11.10566,20.48402 11.10575,36.27879 -9e-5,1.60422 -0.12349,3.64027 -0.37019,6.10817 l -72.18738,0 m 0,-10.73556 59.23068,0 c -0.12348,-10.73549 -2.71482,-19.0031 -7.77402,-24.80285 -5.05936,-5.79958 -12.0313,-8.69941 -20.91585,-8.6995 -9.25483,9e-5 -16.59696,2.96162 -22.0264,8.8846 -5.42951,5.79974 -8.26764,14.00565 -8.51441,24.61775"
         inkscape:connector-curvature="0" />
      <path
         style="font-size:185.09587097px;font-style:normal;font-variant:normal;font-weight:normal;font-stretch:normal;text-align:start;line-height:125%;writing-mode:lr-tb;text-anchor:start;fill:#000000;fill-opacity:1;stroke:none;font-family:Emeplus2p"
         d="m 1008.0598,158.22402 c -10.85901,9e-5 -19.31172,3.39351 -25.35812,10.18027 -6.0465,6.66352 -9.06972,16.1651 -9.0697,28.50476 -2e-5,11.84618 3.20829,21.28606 9.625,28.31967 6.4166,7.03366 14.6842,10.55048 24.80282,10.55047 8.6378,1e-5 16.9054,-2.09774 24.8029,-6.29326 l 3.7019,10.92065 c -9.2549,4.31891 -18.9416,6.47836 -29.0601,6.47836 -14.31411,0 -25.91341,-4.50399 -34.798,-13.512 -8.88462,-9.13137 -13.32692,-21.28599 -13.32691,-36.46389 -10e-6,-15.67138 4.2572,-27.88769 12.77161,-36.64898 8.51438,-8.8845 20.29878,-13.3268 35.3533,-13.3269 10.1185,1e-4 19.8052,2.15955 29.0601,6.47835 l -3.7019,11.29085 c -7.8975,-4.31881 -16.1651,-6.47826 -24.8029,-6.47835"
         id="path3421"
         inkscape:connector-curvature="0" />
      <path
         style="font-size:185.09587097px;font-style:normal;font-variant:normal;font-weight:normal;font-stretch:normal;text-align:start;line-height:125%;writing-mode:lr-tb;text-anchor:start;fill:#000000;fill-opacity:1;stroke:none;font-family:Emeplus2p"
         d="m 1121.9375,117.00131 0,13.06119 14.25,0 0,-13.06119 -14.25,0 z m -56.1875,0.31119 0,35.1875 -11.2812,0 0,11.09375 11.2812,0 0,53.125 c 0,11.10578 2.181,18.9343 6.5,23.5 4.3188,4.4423 9.7299,6.65626 20.2188,6.65625 7.2802,0 9.7379,0.0569 16.0312,-0.6875 l 0.094,-10.71875 c -4.9003,0.5155 -8.1116,0.31251 -14.2813,0.3125 -6.4167,1e-5 -8.8118,-1.41184 -11.1563,-4.25 -2.3445,-2.96151 -3.4999,-8.76842 -3.5,-17.40625 l 0,-50.53125 42.2813,0 0,82.90625 14.25,0 0,-94.25 -56.5313,0.25 0,-35.1875 -13.9062,0 z"
         id="path3423"
         sodipodi:nodetypes="ccccccccccccsccscccccccccc"
         inkscape:connector-curvature="0" />
      <path
         style="font-size:185.09587097px;font-style:normal;font-variant:normal;font-weight:normal;font-stretch:normal;text-align:start;line-height:125%;writing-mode:lr-tb;text-anchor:start;fill:#000000;fill-opacity:1;stroke:none;font-family:Emeplus2p"
         d="m 1196.2285,158.22402 c -10.859,9e-5 -19.3117,3.39351 -25.3582,10.18027 -6.0465,6.66352 -9.0697,16.1651 -9.0697,28.50476 0,11.84618 3.2083,21.28606 9.625,28.31967 6.4166,7.03366 14.6842,10.55048 24.8029,10.55047 8.6377,1e-5 16.9053,-2.09774 24.8028,-6.29326 l 3.7019,10.92065 c -9.2548,4.31891 -18.9415,6.47836 -29.06,6.47836 -14.3141,0 -25.9135,-4.50399 -34.798,-13.512 -8.8847,-9.13137 -13.327,-21.28599 -13.327,-36.46389 0,-15.67138 4.2572,-27.88769 12.7717,-36.64898 8.5143,-8.8845 20.2988,-13.3268 35.3533,-13.3269 10.1185,1e-4 19.8052,2.15955 29.06,6.47835 l -3.7019,11.29085 c -7.8975,-4.31881 -16.1651,-6.47826 -24.8028,-6.47835"
         id="path3425"
         inkscape:connector-curvature="0" />
      <path
         id="path3427"
         style="font-size:185.09587097px;font-style:normal;font-variant:normal;font-weight:normal;font-stretch:normal;text-align:start;line-height:125%;writing-mode:lr-tb;text-anchor:start;fill:#000000;fill-opacity:1;stroke:none;font-family:Emeplus2p"
         d="m 1280.4424,146.93317 c 13.4503,1e-4 23.0753,2.77654 28.875,8.32931 5.7996,5.55297 8.6994,14.68435 8.6995,27.39419 l 0,36.46389 c -10e-5,8.76122 0.9254,17.39902 2.7764,25.91342 l -12.9567,0 c -1.1106,-5.92306 -1.7276,-11.59933 -1.8509,-17.02882 l -0.3702,0 c -3.3318,5.92308 -8.1443,10.55047 -14.4375,13.88219 -6.2933,3.33173 -13.3886,4.99759 -21.286,4.99759 -8.8847,0 -15.98,-2.46794 -21.2861,-7.40384 -5.306,-5.05927 -7.9591,-11.84611 -7.9591,-20.36054 0,-10.85892 4.6274,-19.43502 13.8822,-25.72833 9.3782,-6.2932 22.7668,-9.43982 40.1658,-9.43989 l 9.8101,0 0,-0.92548 c -10e-5,-9.37811 -1.7893,-15.85646 -5.3678,-19.43506 -3.4552,-3.70183 -9.6867,-5.55279 -18.6947,-5.55288 -11.5993,9e-5 -22.3966,2.83823 -32.3917,8.51441 l -2.4063,-10.92066 c 10.242,-5.79957 21.8413,-8.6994 34.798,-8.6995 m -26.4687,71.6321 c 0,5.5529 1.7276,9.9335 5.1827,13.14181 3.4551,3.08494 8.0825,4.62741 13.8822,4.62739 8.5144,2e-5 15.8565,-3.02321 22.0264,-9.06969 6.2932,-6.16984 9.4398,-13.69706 9.4399,-22.5817 l 0,-10.36537 -9.8101,0 c -12.9567,6e-5 -23.0136,2.2212 -30.1706,6.66345 -7.0337,4.31895 -10.5505,10.18031 -10.5505,17.58411"
         inkscape:connector-curvature="0" />
      <path
         sodipodi:nodetypes="ccccc"
         style="font-size:185.09587097px;font-style:normal;font-variant:normal;font-weight:normal;font-stretch:normal;text-align:start;line-height:125%;writing-mode:lr-tb;text-anchor:start;fill:#000000;fill-opacity:1;stroke:none;font-family:Emeplus2p"
         d="m 1344.9869,245.03398 0,-128.02533 14.2524,0 0,128.02533 -14.2524,0"
         id="path3429"
         inkscape:connector-curvature="0" />
    </g>
    <g
       id="g10064"
       style="stroke:none"
       transform="matrix(1.0715256,0,0,1.0715256,-157.6193,-8.7051616)"
       inkscape:export-filename="/home/acastro/connectical/webdesign/i/headlogo3.png"
       inkscape:export-xdpi="20.360001"
       inkscape:export-ydpi="20.360001">
      <path
         id="path3186"
         d="m 518.20068,158.22402 c -10.85901,9e-5 -19.31171,3.39351 -25.35814,10.18027 -6.04649,6.66352 -9.06972,16.1651 -9.0697,28.50476 -2e-5,11.84618 3.2083,21.28606 9.62499,28.31967 6.41661,7.03366 14.68423,10.55048 24.80285,10.55047 8.63773,1e-5 16.90535,-2.09774 24.80284,-6.29326 l 3.70193,10.92065 c -9.25488,4.31891 -18.94156,6.47836 -29.06006,6.47836 -14.31413,0 -25.91345,-4.50399 -34.79803,-13.512 -8.88461,-9.13137 -13.32691,-21.28599 -13.32689,-36.46389 -2e-5,-15.67138 4.25718,-27.88769 12.7716,-36.64898 8.51439,-8.8845 20.29882,-13.3268 35.35332,-13.3269 10.1185,1e-4 19.80518,2.15955 29.06006,6.47835 l -3.70193,11.29085 c -7.89749,-4.31881 -16.16511,-6.47826 -24.80284,-6.47835"
         style="font-size:185.09587097px;font-style:normal;font-variant:normal;font-weight:normal;font-stretch:normal;text-align:start;line-height:125%;writing-mode:lr-tb;text-anchor:start;fill:#ffffff;fill-opacity:1;stroke:none;font-family:Emeplus2p"
         inkscape:connector-curvature="0" />
      <path
         d="m 627.06847,168.40429 c -5.55294,-6.91016 -13.20357,-10.36528 -22.95189,-10.36537 -9.74842,9e-5 -17.46074,3.45521 -23.13698,10.36537 -5.5529,6.78692 -8.32934,16.2885 -8.32932,28.50476 -2e-5,12.21637 2.77642,21.77965 8.32932,28.68986 5.67624,6.78687 13.38856,10.18029 23.13698,10.18028 9.74832,1e-5 17.39895,-3.39341 22.95189,-10.18028 5.6762,-6.91021 8.51433,-16.47349 8.51442,-28.68986 -9e-5,-12.21626 -2.83822,-21.71784 -8.51442,-28.50476 m 9.99518,64.96865 c -8.26769,9.00801 -19.25004,13.512 -32.94707,13.512 -13.69712,0 -24.67948,-4.50399 -32.94705,-13.512 -8.26764,-9.00797 -12.40144,-21.16259 -12.40144,-36.46389 0,-15.30119 4.1338,-27.4558 12.40144,-36.46388 8.26757,-9.0079 19.24993,-13.5119 32.94705,-13.512 13.69703,1e-4 24.67938,4.5041 32.94707,13.512 8.26752,9.00808 12.40132,21.16269 12.40142,36.46388 -10e-5,15.3013 -4.1339,27.45592 -12.40142,36.46389"
         style="font-size:185.09587097px;font-style:normal;font-variant:normal;font-weight:normal;font-stretch:normal;text-align:start;line-height:125%;writing-mode:lr-tb;text-anchor:start;fill:#ffffff;fill-opacity:1;stroke:none;font-family:Emeplus2p"
         id="path3184"
         inkscape:connector-curvature="0" />
      <path
         id="path3180"
         d="m 663.53197,148.78413 12.95671,0 0.1851,17.21391 0.37019,0 c 3.7019,-5.92298 8.45267,-10.55037 14.25239,-13.88219 5.79962,-3.45502 11.96948,-5.18258 18.50959,-5.18268 10.85889,1e-4 18.8797,3.39352 24.06245,10.18027 5.306,6.66354 7.95903,17.27569 7.95912,31.83649 l 0,56.08405 -13.32689,0 0,-54.97347 c -9e-5,-11.96947 -1.72765,-20.23707 -5.18269,-24.80285 -3.4552,-4.68901 -9.37826,-7.03355 -17.76921,-7.03364 -7.28048,9e-5 -13.88223,3.51691 -19.80525,10.55046 -5.79971,7.03372 -8.69954,15.30132 -8.69951,24.80285 l 0,51.45665 -13.512,0 0,-96.24985"
         style="font-size:185.09587097px;font-style:normal;font-variant:normal;font-weight:normal;font-stretch:normal;text-align:start;line-height:125%;writing-mode:lr-tb;text-anchor:start;fill:#ffffff;fill-opacity:1;stroke:none;font-family:Emeplus2p"
         inkscape:connector-curvature="0" />
      <path
         id="path3178"
         d="m 761.45597,148.78413 12.95671,0 0.18509,17.21391 0.3702,0 c 3.70189,-5.92298 8.45267,-10.55037 14.25239,-13.88219 5.79962,-3.45502 11.96948,-5.18258 18.50958,-5.18268 10.85889,1e-4 18.8797,3.39352 24.06247,10.18027 5.30598,6.66354 7.95903,17.27569 7.95912,31.83649 l 0,56.08405 -13.32691,0 0,-54.97347 c -8e-5,-11.96947 -1.72763,-20.23707 -5.18268,-24.80285 -3.4552,-4.68901 -9.37826,-7.03355 -17.76921,-7.03364 -7.28049,9e-5 -13.88222,3.51691 -19.80526,10.55046 -5.7997,7.03372 -8.69953,15.30132 -8.6995,24.80285 l 0,51.45665 -13.512,0 0,-96.24985"
         style="font-size:185.09587097px;font-style:normal;font-variant:normal;font-weight:normal;font-stretch:normal;text-align:start;line-height:125%;writing-mode:lr-tb;text-anchor:start;fill:#ffffff;fill-opacity:1;stroke:none;font-family:Emeplus2p"
         inkscape:connector-curvature="0" />
      <path
         d="m 870.78382,202.09174 c 0.24677,10.4888 3.39339,18.75641 9.43988,24.80285 6.16983,6.04648 14.25234,9.06971 24.24756,9.06969 9.87172,2e-5 19.31161,-2.46793 28.31968,-7.40383 l 3.70192,10.55046 c -10.36546,5.18269 -21.4712,7.77403 -33.31727,7.77403 -13.82053,0 -24.98796,-4.50399 -33.50235,-13.512 -8.51442,-9.00797 -12.77163,-21.16259 -12.77162,-36.46389 -10e-6,-15.54798 3.9487,-27.7643 11.84614,-36.64898 8.02079,-8.8845 18.87974,-13.3268 32.57687,-13.3269 13.32685,1e-4 23.6305,4.2573 30.91101,12.77161 7.40376,8.3911 11.10566,20.48402 11.10575,36.27879 -9e-5,1.60422 -0.12349,3.64027 -0.37019,6.10817 l -72.18738,0 m 0,-10.73556 59.23068,0 c -0.12348,-10.73549 -2.71482,-19.0031 -7.77402,-24.80285 -5.05936,-5.79958 -12.0313,-8.69941 -20.91585,-8.6995 -9.25483,9e-5 -16.59696,2.96162 -22.0264,8.8846 -5.42951,5.79974 -8.26764,14.00565 -8.51441,24.61775"
         style="font-size:185.09587097px;font-style:normal;font-variant:normal;font-weight:normal;font-stretch:normal;text-align:start;line-height:125%;writing-mode:lr-tb;text-anchor:start;fill:#ffffff;fill-opacity:1;stroke:none;font-family:Emeplus2p"
         id="path3176"
         inkscape:connector-curvature="0" />
      <path
         id="path3172"
         d="m 1008.0598,158.22402 c -10.85901,9e-5 -19.31172,3.39351 -25.35812,10.18027 -6.0465,6.66352 -9.06972,16.1651 -9.0697,28.50476 -2e-5,11.84618 3.20829,21.28606 9.625,28.31967 6.4166,7.03366 14.6842,10.55048 24.80282,10.55047 8.6378,1e-5 16.9054,-2.09774 24.8029,-6.29326 l 3.7019,10.92065 c -9.2549,4.31891 -18.9416,6.47836 -29.0601,6.47836 -14.31411,0 -25.91341,-4.50399 -34.798,-13.512 -8.88462,-9.13137 -13.32692,-21.28599 -13.32691,-36.46389 -10e-6,-15.67138 4.2572,-27.88769 12.77161,-36.64898 8.51438,-8.8845 20.29878,-13.3268 35.3533,-13.3269 10.1185,1e-4 19.8052,2.15955 29.0601,6.47835 l -3.7019,11.29085 c -7.8975,-4.31881 -16.1651,-6.47826 -24.8029,-6.47835"
         style="font-size:185.09587097px;font-style:normal;font-variant:normal;font-weight:normal;font-stretch:normal;text-align:start;line-height:125%;writing-mode:lr-tb;text-anchor:start;fill:#ffffff;fill-opacity:1;stroke:none;font-family:Emeplus2p"
         inkscape:connector-curvature="0" />
      <path
         sodipodi:nodetypes="ccccccccccccsccscccccccccc"
         id="path3170"
         d="m 1121.9375,117.00131 0,13.06119 14.25,0 0,-13.06119 -14.25,0 z m -56.1875,0.31119 0,35.1875 -11.2812,0 0,11.09375 11.2812,0 0,53.125 c 0,11.10578 2.181,18.9343 6.5,23.5 4.3188,4.4423 9.7299,6.65626 20.2188,6.65625 7.2802,0 9.7379,0.0569 16.0312,-0.6875 l 0.094,-10.71875 c -4.9003,0.5155 -8.1116,0.31251 -14.2813,0.3125 -6.4167,1e-5 -8.8118,-1.41184 -11.1563,-4.25 -2.3445,-2.96151 -3.4999,-8.76842 -3.5,-17.40625 l 0,-50.53125 42.2813,0 0,82.90625 14.25,0 0,-94.25 -56.5313,0.25 0,-35.1875 -13.9062,0 z"
         style="font-size:185.09587097px;font-style:normal;font-variant:normal;font-weight:normal;font-stretch:normal;text-align:start;line-height:125%;writing-mode:lr-tb;text-anchor:start;fill:#ffffff;fill-opacity:1;stroke:none;font-family:Emeplus2p"
         inkscape:connector-curvature="0" />
      <path
         id="path3164"
         d="m 1196.2285,158.22402 c -10.859,9e-5 -19.3117,3.39351 -25.3582,10.18027 -6.0465,6.66352 -9.0697,16.1651 -9.0697,28.50476 0,11.84618 3.2083,21.28606 9.625,28.31967 6.4166,7.03366 14.6842,10.55048 24.8029,10.55047 8.6377,1e-5 16.9053,-2.09774 24.8028,-6.29326 l 3.7019,10.92065 c -9.2548,4.31891 -18.9415,6.47836 -29.06,6.47836 -14.3141,0 -25.9135,-4.50399 -34.798,-13.512 -8.8847,-9.13137 -13.327,-21.28599 -13.327,-36.46389 0,-15.67138 4.2572,-27.88769 12.7717,-36.64898 8.5143,-8.8845 20.2988,-13.3268 35.3533,-13.3269 10.1185,1e-4 19.8052,2.15955 29.06,6.47835 l -3.7019,11.29085 c -7.8975,-4.31881 -16.1651,-6.47826 -24.8028,-6.47835"
         style="font-size:185.09587097px;font-style:normal;font-variant:normal;font-weight:normal;font-stretch:normal;text-align:start;line-height:125%;writing-mode:lr-tb;text-anchor:start;fill:#ffffff;fill-opacity:1;stroke:none;font-family:Emeplus2p"
         inkscape:connector-curvature="0" />
      <path
         d="m 1280.4424,146.93317 c 13.4503,1e-4 23.0753,2.77654 28.875,8.32931 5.7996,5.55297 8.6994,14.68435 8.6995,27.39419 l 0,36.46389 c -10e-5,8.76122 0.9254,17.39902 2.7764,25.91342 l -12.9567,0 c -1.1106,-5.92306 -1.7276,-11.59933 -1.8509,-17.02882 l -0.3702,0 c -3.3318,5.92308 -8.1443,10.55047 -14.4375,13.88219 -6.2933,3.33173 -13.3886,4.99759 -21.286,4.99759 -8.8847,0 -15.98,-2.46794 -21.2861,-7.40384 -5.306,-5.05927 -7.9591,-11.84611 -7.9591,-20.36054 0,-10.85892 4.6274,-19.43502 13.8822,-25.72833 9.3782,-6.2932 22.7668,-9.43982 40.1658,-9.43989 l 9.8101,0 0,-0.92548 c -10e-5,-9.37811 -1.7893,-15.85646 -5.3678,-19.43506 -3.4552,-3.70183 -9.6867,-5.55279 -18.6947,-5.55288 -11.5993,9e-5 -22.3966,2.83823 -32.3917,8.51441 l -2.4063,-10.92066 c 10.242,-5.79957 21.8413,-8.6994 34.798,-8.6995 m -26.4687,71.6321 c 0,5.5529 1.7276,9.9335 5.1827,13.14181 3.4551,3.08494 8.0825,4.62741 13.8822,4.62739 8.5144,2e-5 15.8565,-3.02321 22.0264,-9.06969 6.2932,-6.16984 9.4398,-13.69706 9.4399,-22.5817 l 0,-10.36537 -9.8101,0 c -12.9567,6e-5 -23.0136,2.2212 -30.1706,6.66345 -7.0337,4.31895 -10.5505,10.18031 -10.5505,17.58411"
         style="font-size:185.09587097px;font-style:normal;font-variant:normal;font-weight:normal;font-stretch:normal;text-align:start;line-height:125%;writing-mode:lr-tb;text-anchor:start;fill:#ffffff;fill-opacity:1;stroke:none;font-family:Emeplus2p"
         id="path3162"
         inkscape:connector-curvature="0" />
      <path
         id="text2174"
         d="m 1344.9869,245.03398 0,-128.02533 14.2524,0 0,128.02533 -14.2524,0"
         style="font-size:185.09587097px;font-style:normal;font-variant:normal;font-weight:normal;font-stretch:normal;text-align:start;line-height:125%;writing-mode:lr-tb;text-anchor:start;fill:#ffffff;fill-opacity:1;stroke:none;font-family:Emeplus2p"
         sodipodi:nodetypes="ccccc"
         inkscape:connector-curvature="0" />
    </g>
  </g>
</svg>
